<svg id="图层_1" data-name="图层 1" xmlns="http://www.w3.org/2000/svg" viewBox="0 0 1023.963 1023.963"><defs><style>.cls-1{fill:#fefefe;}</style></defs><path d="M1021.5,1019.033q-506.148,0-1012.295.187c-7.478,0-9.168-1.683-9.164-9.163Q.361,503.9.224-2.261C3.68-4.093,7.41-3.183,11-3.184q499.611-.072,999.223-.028c13.7,0,12.225-1.5,12.226,12.217q.031,499.623-.028,999.245C1022.418,1011.841,1023.326,1015.574,1021.5,1019.033Z" transform="translate(-0.037 4.743)"/><path class="cls-1" d="M1021.5,1019.033q0-505.155.214-1010.31c.006-9.023-2.176-11.205-11.2-11.2Q505.369-2.1.224-2.261c1.8-4.124,5.391-1.86,7.98-1.871,41.555-.176,83.11-.124,124.666-.124q440.823,0,881.645-.188c7.479,0,9.168,1.685,9.163,9.164q-.324,502.668-.31,1005.337C1023.366,1012.976,1025.668,1016.82,1021.5,1019.033Z" transform="translate(-0.037 4.743)"/><path class="cls-1" d="M48.718,507.881q0-225.388-.2-450.778C48.5,48.47,50.36,46.048,59.35,46.056q451.267.4,902.534,0c9.367-.008,11.319,2.644,11.312,11.562q-.35,450.779,0,901.556c.007,8.943-1.985,11.556-11.326,11.548q-451.267-.4-902.534,0c-9.012.008-10.835-2.451-10.819-11.061Q48.933,733.77,48.718,507.881Z" transform="translate(-0.037 4.743)"/><path d="M97.65,508.415q0-201.441-.247-402.883c-.025-9.115,2.561-10.579,10.937-10.56Q291.826,95.4,475.314,95c8.46-.017,11.645,1.255,11.633,10.974q-.476,402.386-.083,804.769c.006,8.182-1.106,11.157-10.495,11.126q-184.484-.591-368.968-.028c-8.8.024-9.94-2.738-9.926-10.541Q97.841,709.857,97.65,508.415Z" transform="translate(-0.037 4.743)"/><path d="M535.028,508.367q0-201.443-.185-402.883c-.016-7.973,1.429-10.554,10.058-10.532q184.981.472,369.966.055c7.112-.013,9.41,1.227,9.4,9.019q-.359,404.379,0,808.758c.007,7.868-2.41,8.987-9.446,8.975q-184.983-.319-369.966.064c-8.69.022-10.032-2.659-10.017-10.573Q535.227,709.809,535.028,508.367Z" transform="translate(-0.037 4.743)"/></svg>