<svg id="图层_1" data-name="图层 1" xmlns="http://www.w3.org/2000/svg" viewBox="0 0 1028.743 1028.743"><defs><style>.cls-1{fill:#fefefe;}</style></defs><path d="M1023.743-2.246q0,508.52.188,1017.039c0,7.514-1.692,9.212-9.206,9.207q-508.522-.325-1017.045-.188c-1.84-3.472-.926-7.219-.927-10.824q-.072-501.951-.028-1003.9C-3.274-4.673-4.779-3.2,9-3.2q501.954-.031,1003.908.028C1016.517-3.172,1020.267-4.081,1023.743-2.246Z" transform="translate(4.812 4.743)"/><path class="cls-1" d="M1023.743-2.246Q516.228-2.246,8.715-2.46C-.349-2.467-2.541-.274-2.534,8.79q.381,507.51.214,1015.022c-4.141-1.8-1.869-5.412-1.88-8.012-.176-41.395-.124-82.792-.124-124.188q0-443.674-.194-887.349c-.006-7.225,1.484-8.711,8.707-8.706q505.771.333,1011.543.313C1018.328-4.129,1021.941-6.384,1023.743-2.246Z" transform="translate(4.812 4.743)"/><path class="cls-1" d="M511.193,46.517q226.442,0,452.883-.189c8.513-.015,11.191,1.567,11.183,10.8q-.431,453.381-.01,906.763c.009,9.451-2.714,11.352-11.635,11.345q-452.883-.345-905.767,0c-8.843.006-11.687-1.771-11.678-11.3q.423-453.382,0-906.764c-.008-9.156,2.545-10.864,11.139-10.848Q284.251,46.726,511.193,46.517Z" transform="translate(4.812 4.743)"/><path d="M95.563,510.791q0-202.348-.242-404.7c-.023-9.054,2.42-10.664,10.935-10.657q404.7.363,809.4.01c8.091-.007,10.432,1.564,10.423,10.13q-.395,405.2,0,810.394c.008,8.535-2.285,10.155-10.4,10.148q-404.7-.345-809.4,0c-8.477.007-10.978-1.545-10.954-10.637Q95.85,713.141,95.563,510.791Z" transform="translate(4.812 4.743)"/></svg>