<?xml version="1.0" encoding="utf-8"?>
<!-- Generator: $$$/GeneralStr/196=Adobe Illustrator 27.6.0, SVG Export Plug-In . SVG Version: 6.00 Build 0)  -->
<svg version="1.1" id="图层_1" xmlns="http://www.w3.org/2000/svg" xmlns:xlink="http://www.w3.org/1999/xlink" x="0px" y="0px"
	 viewBox="0 0 1024 150" style="enable-background:new 0 0 1024 150;" xml:space="preserve">
<style type="text/css">
	.st0{fill-rule:evenodd;clip-rule:evenodd;}
</style>
<path class="st0" d="M210.64,110.01L210.64,110.01h43.7v7.56c0,3.04-1.82,4.09-7.42,4.09h-28.86c-5.59,0-7.42-1.05-7.42-4.09V110.01
	L210.64,110.01z M211.04,133.83h42.9c6.67,0,17.13-2,17.13-12v-24H193.9v24C193.91,131.83,204.37,133.83,211.04,133.83
	L211.04,133.83z M283.24,77.85H181.75c-6.67,0-17.13,2-17.13,12v55.82h10.97c3.5,0,6.33-2.83,6.33-6.33V94.12
	c0-3.05,1.82-4.09,7.42-4.09h86.32c5.59,0,7.42,1.05,7.42,4.09v45.22c0,3.5,2.83,6.33,6.33,6.33h10.97V89.85
	C300.37,79.85,289.91,77.85,283.24,77.85L283.24,77.85z M197.62,45.49L197.62,45.49h69.74v7.92c0,3.04-1.83,4.09-7.42,4.09h-54.9
	c-5.59,0-7.42-1.05-7.42-4.09L197.62,45.49L197.62,45.49z M197.8,69.67h69.38c6.67,0,17.13-2,17.13-12V33.31H180.67v24.37
	C180.67,67.68,191.13,69.67,197.8,69.67L197.8,69.67z M240.26,13.34v-2.06c0-3.49-2.83-6.33-6.33-6.33h-10.97v8.39h-59.72
	c0,0,2.58,8.49,2.94,9.65c0.47,1.55,1.86,2.52,3,2.52h131.19V13.34H240.26L240.26,13.34z M70.94,45.61L70.94,45.61h47.07v7.8
	c0,3.05-3.42,4.09-9.02,4.09H79.95c-5.6,0-9.02-1.05-9.02-4.09v-7.8H70.94z M70.94,21.31L70.94,21.31h47.07V33.2H70.94V21.31
	L70.94,21.31z M71.34,69.67h46.27c6.67,0,17.14-2,17.14-12V9.13H54.2v48.54C54.2,67.68,64.67,69.67,71.34,69.67L71.34,69.67z
	 M140.44,103.88h-37.32V90.02h43.26c0,0-2.59-8.49-2.94-9.65c-0.48-1.55-1.86-2.52-3.01-2.52H42.56c0,0,2.58,8.49,2.94,9.65
	c0.47,1.55,1.86,2.52,3,2.52h37.32v13.86H42.56c0,0,2.58,8.49,2.94,9.65c0.47,1.55,1.86,2.52,3,2.52h37.32v23.29
	c0,3.49,2.83,6.33,6.32,6.33h10.97v-29.62h43.26c0,0-2.59-8.49-2.94-9.65C142.97,104.85,141.59,103.88,140.44,103.88L140.44,103.88z
	 M0,73.66c0,3.49,2.83,6.33,6.33,6.33h7.4V41.68H0V73.66L0,73.66z M45.39,44.19c0.35,1.16,2.94,9.65,2.94,9.65H36.57v91.83H26.16
	c-3.49,0-6.32-2.83-6.32-6.33V4.95h16.74v36.72h5.81C43.53,41.67,44.91,42.64,45.39,44.19L45.39,44.19z M892.33,127.76
	c-0.88-2.89-3.45-4.69-5.58-4.69h-44.09c-2.41,0-4.36-1.95-4.36-4.36V9.13h-34.24v127.12c0,5.2,4.21,9.41,9.42,9.41h59.73h24.58
	C897.79,145.67,892.99,129.9,892.33,127.76L892.33,127.76z M653.42,70.38h-64.03c0,0,4.8,15.77,5.46,17.91
	c0.88,2.89,3.45,4.69,5.58,4.69h18.76v2.11c0,23.31-3.08,30.12-24.21,30.18c-21.13-0.06-24.21-6.87-24.21-30.18V59.72
	c0-23.31,3.08-30.12,24.21-30.18c19.75,0.05,23.73,6.01,24.17,25.81h34.21c-1.22-40.94-20.11-48.39-58.38-48.42
	c-39.59,0.03-58.45,8-58.45,52.78v35.37c0,44.79,18.85,52.75,58.45,52.78c39.59-0.04,58.45-8,58.45-52.78L653.42,70.38L653.42,70.38
	L653.42,70.38z M989.77,92.88L989.77,92.88c0,23.31-3.08,30.12-24.21,30.17v0.01h-24.07V31.74h24.07
	c21.13,0.06,24.21,6.87,24.21,30.18V92.88L989.77,92.88z M965.55,9.14L965.55,9.14h-58.3v136.53h58.3c39.6-0.03,58.45-8,58.45-52.79
	V61.92C1024,17.13,1005.15,9.17,965.55,9.14L965.55,9.14z M430.31,9.14c-3.46,0-6.27,2.81-6.27,6.27c0,0,0,41.75,0,43.91
	c0,3.46-2.8,6.27-6.27,6.27H388.2c-2.15,0-5.67-1.44-7.18-6.42c0,0-13.78-45.21-13.81-45.35c-0.88-2.88-3.45-4.68-5.58-4.68h-20.3
	v136.53h27.96c3.46,0,6.27-2.81,6.27-6.27c0,0,0-41.75,0-43.91c0-3.46,2.81-6.27,6.27-6.27h29.57c2.15,0,5.67,1.44,7.18,6.42
	c0,0,13.78,45.22,13.82,45.35c0.88,2.88,3.45,4.68,5.58,4.68h20.3V9.14H430.31L430.31,9.14z M752.22,95.09L752.22,95.09
	c0,23.31-3.08,30.12-24.21,30.18c-21.13-0.06-24.21-6.87-24.21-30.18V59.72c0-23.31,3.08-30.12,24.21-30.18
	c21.13,0.05,24.21,6.87,24.21,30.18V95.09L752.22,95.09z M728.01,6.93c-39.59,0.03-58.45,8-58.45,52.78v35.37
	c0,44.79,18.85,52.75,58.45,52.78c39.59-0.04,58.44-8,58.44-52.78V59.71C786.45,14.93,767.6,6.96,728.01,6.93L728.01,6.93z
	 M481.84,145.67h35.59V9.13h-35.59V145.67z"/>
</svg>
