<svg id="图层_2" data-name="图层 2" xmlns="http://www.w3.org/2000/svg" viewBox="0 0 1040.721 689.375"><defs><style>.cls-1{fill:#231815;}</style></defs><path class="cls-1" d="M520.361,282.325a62.363,62.363,0,1,0,62.362,62.363A62.363,62.363,0,0,0,520.361,282.325Zm0,111.969a49.607,49.607,0,1,1,49.606-49.606A49.607,49.607,0,0,1,520.361,394.294Z"/><path class="cls-1" d="M1032.413,0H8.308A8.307,8.307,0,0,0,0,8.308V681.067a8.307,8.307,0,0,0,8.308,8.308H1032.413a8.307,8.307,0,0,0,8.308-8.308V8.308A8.307,8.307,0,0,0,1032.413,0ZM520.221,35.946a26.929,26.929,0,1,1-26.929,26.929A26.928,26.928,0,0,1,520.221,35.946Zm-375,5.669a21.26,21.26,0,1,1-21.26,21.26A21.259,21.259,0,0,1,145.221,41.615Zm859.5,592.712a18.048,18.048,0,0,1-18.048,18.048H53.769a18.048,18.048,0,0,1-18.048-18.048v-502.9a18.048,18.048,0,0,1,18.048-18.048h932.9a18.048,18.048,0,0,1,18.048,18.048Z"/></svg>