<?xml version="1.0" encoding="utf-8"?>
<!-- Generator: Adobe Illustrator 24.1.3, SVG Export Plug-In . SVG Version: 6.00 Build 0)  -->
<svg version="1.1" id="图层_1" xmlns="http://www.w3.org/2000/svg" xmlns:xlink="http://www.w3.org/1999/xlink" x="0px" y="0px"
	 viewBox="0 0 1024 1024" style="enable-background:new 0 0 1024 1024;" xml:space="preserve">
<path d="M24.4,902.2c17.5-55.5,34.7-110,52.3-165.5c15.5,4.9,30.2,9.6,46.4,14.7c-9.1,29-18.1,57.3-27.5,87.3c4-1.6,6.6-2.5,9.1-3.8
	c35.5-17.7,70.8-35.6,106.5-52.9c6.7-3.3,8.8-7.2,8.7-14.5c-0.3-97.7,0-195.4-0.4-293.1c0-8.7,2.9-12.7,10.4-16.4
	c82.9-41.1,165.6-82.7,248.5-123.8c7.2-3.6,9.8-7.7,9.8-15.8c-0.4-46.3-0.2-92.7-0.1-139v-12.4c-19.4,20.1-36.8,38.2-54.3,56.5
	c-12.7-13.2-23.5-24.4-33.4-34.7c36.9-37.6,74.6-76,111.1-113.3c38.1,37.6,76.2,75.1,114.3,112.6c-11.1,10.9-22.2,21.8-34.3,33.7
	C574,204.3,556,186.4,536,166.9v10.7c0.3,47.3,0.6,94.7,0.1,142c-0.1,7.6,2.7,11,9.1,14.2c82.9,41.2,165.6,82.8,248.6,123.8
	c8.5,4.2,10.9,9,10.9,18.1c-0.3,97-0.1,194-0.4,291.1c0,7.7,2,11.8,9.1,15.3c38,18.5,75.7,37.6,115.7,57.5
	c-9.6-30.4-18.5-58.7-27.8-88c15.5-5,30.2-9.7,46.3-14.8c17.3,55.1,34.5,109.8,52,165.6c-54.6,16.4-108.4,32.4-162.9,48.8
	c-5-15.7-9.8-30.6-14.8-46.3c25.5-8.2,50.7-16.3,77.5-24.9c-4.5-2.4-7.3-4.1-10.1-5.5c-34.2-17.2-68.6-34.1-102.7-51.5
	c-6.5-3.3-11.6-3.6-18.3-0.2c-81.7,41.2-163.7,82-245.4,123.3c-8.1,4.1-14.2,3.7-22.1-0.3c-81.8-41.2-163.8-82-245.6-123.2
	c-6.3-3.2-11.2-3.1-17.4,0.1c-37,18.9-74.3,37.4-113.5,57.1c27,8.7,52.1,16.7,77.9,25c-4.9,15.5-9.6,30.3-14.7,46.3
	C133.4,934.8,79.7,918.7,24.4,902.2z M268.8,515.7c-0.4,2-0.6,2.6-0.6,3.3c0,82.9-0.1,165.9,0.2,248.8c0,3.4,3.6,8.4,6.9,10
	c67.7,34.2,135.5,68.1,203.3,101.9c2.6,1.3,5.3,2.2,8.7,3.6c0.2-2.5,0.5-4,0.5-5.6c0-81.9-0.1-163.9,0.2-245.8c0-6.3-2.9-8.7-7.7-11
	c-67.6-33.7-135.1-67.4-202.7-101.2C275.1,518.4,272.4,517.3,268.8,515.7z M756,515.5c-3.2,1.4-4.8,1.9-6.2,2.6
	c-69,34.5-138,69.1-207.1,103.4c-5.6,2.8-6.5,6.3-6.5,11.7c0.1,80.6,0.1,161.3,0.1,241.9c0,2.5,0.2,5.1,0.4,8.5
	c2.6-1,4.5-1.6,6.2-2.4c68.4-34.2,136.8-68.5,205.4-102.5c6-3,7.9-6.4,7.9-13c-0.2-80.3-0.2-160.6-0.2-240.9
	C756,522.2,756,519.6,756,515.5z M302.2,476.7c1.7,1.2,2.7,2,3.8,2.6c67,33.5,133.9,67.1,201,100.2c3.3,1.6,9,0.7,12.6-1.1
	c40.4-19.8,80.5-40,120.7-60c27.1-13.5,54.2-27.1,82-41c-2.4-1.5-4-2.7-5.7-3.6c-66.1-33.1-132.1-66.3-198.4-99
	c-3.6-1.8-9.7-1-13.5,0.8c-55.8,27.5-111.5,55.4-167.2,83.2C325.9,464.7,314.4,470.5,302.2,476.7z"/>
</svg>
