<?xml version="1.0" encoding="utf-8"?>
<!-- Generator: Adobe Illustrator 24.1.3, SVG Export Plug-In . SVG Version: 6.00 Build 0)  -->
<svg version="1.1" id="图层_1" xmlns="http://www.w3.org/2000/svg" xmlns:xlink="http://www.w3.org/1999/xlink" x="0px" y="0px"
	 viewBox="0 0 1024 1024" style="enable-background:new 0 0 1024 1024;" xml:space="preserve">
<g>
	<path d="M953.2,261.3c0-11.7-0.7-23.3-2.8-34.7C932.5,132.1,855.4,68,759.5,67.9c-168.2-0.1-336.5,0-504.7-0.1
		c-12,0-23.9,0.7-35.6,3C123.9,89.6,61.1,166,61.1,263.3c-0.1,83.3,0,166.6,0,249.9c0,84.6-0.2,169.2,0,253.8
		c0.2,108.5,84.5,192.7,193.2,192.9c168.6,0.2,337.2,0.2,505.7,0c108.7-0.1,193-84.3,193.1-192.9
		C953.3,598.4,953.2,429.8,953.2,261.3z M347.8,736.1c0,21.3-12.7,39.1-31.9,45.9c-18.9,6.7-40.2,0.7-52.9-15.1
		c-7.1-8.8-10.7-18.9-10.7-30.3c0-148.7-0.1-297.3,0.1-446c0-26.6,21.3-47.4,47.4-47.5c26.6-0.1,47.9,20.8,48,48
		c0.2,74.3,0.1,148.7,0.1,223C347.8,588.1,347.9,662.1,347.8,736.1z M591,779.6c-29.5,6.1-59.4,5-89.2,5c-8.6,0-17.2,0.1-25.9,0
		c-27.8-0.4-48.3-20.7-48.4-48.6c-0.2-74-0.1-147.9-0.1-221.9c0-73,0-145.9,0-218.9c0-32.5,19.6-52.4,51.8-52.1
		c35.1,0.4,70.2-1.8,105.2,3.7C695.7,264.4,788.8,357.5,805.9,469C828.6,616.5,736.6,749.4,591,779.6z"/>
	<path d="M533.2,338.5c-8,0-10.4,1.4-10.4,10c0.5,55.1,0.2,110.2,0.2,165.2c0,55.7,0.1,111.5-0.1,167.2c0,6.1,1,8.8,7.9,8.3
		c10.6-0.7,21.2-0.6,31.8-1.8c97.9-11.9,168.3-109.4,148.5-206C693.4,394.9,623.3,338.7,533.2,338.5z"/>
</g>
</svg>
