<?xml version="1.0" encoding="utf-8"?>
<!-- Generator: Adobe Illustrator 24.1.3, SVG Export Plug-In . SVG Version: 6.00 Build 0)  -->
<svg version="1.1" id="图层_1" xmlns="http://www.w3.org/2000/svg" xmlns:xlink="http://www.w3.org/1999/xlink" x="0px" y="0px"
	 viewBox="0 0 1024 1024" style="enable-background:new 0 0 1024 1024;" xml:space="preserve">
<path d="M468.2,853.7c0-227.6,0-453.7,0-680.8c-84.7,0-169.2,0-255,0c0,4.4,0.1,8.6,0,12.8c-0.3,21.6,0.7,43.3-1.3,64.8
	c-2.2,22.4-21.3,36.1-44.6,34.9c-21.1-1-38.7-17.8-39.1-39.3c-0.7-39.9-0.7-79.8,0-119.7c0.4-21.6,17.7-37.8,39.2-39.1
	c3.3-0.2,6.7-0.2,10-0.2c222.5,0,445.1,0,667.6,0c6,0,12.1-0.1,17.8,1.3c18.4,4.3,31.3,20.4,31.5,40c0.3,38.6,0.4,77.2,0,115.8
	c-0.2,22.2-17,39.7-38.3,41.2c-24.2,1.7-43.6-12.4-45.8-35.9c-2-21.1-0.9-42.5-1.1-63.8c0-4.2,0-8.4,0-13.2c-85.6,0-169.9,0-254.9,0
	c0,226.9,0,453.3,0,680.6c3.8,0.2,7.3,0.5,10.8,0.5c25.6,0.1,51.2-0.3,76.8,0.3c20.6,0.5,36.9,16.1,39,35.9
	c2.5,22.8-9.8,41.9-30.7,47.3c-4.4,1.1-9.2,1.3-13.8,1.3c-83.5,0.1-167,0.1-250.5,0c-27.2,0-44.9-17.2-44.8-42.6
	c0.1-23.6,16.8-41.4,40.4-41.9c24.9-0.6,49.9-0.2,74.8-0.2C459.8,853.7,463.4,853.7,468.2,853.7z"/>
</svg>
