<?xml version="1.0" encoding="utf-8"?>
<!-- Generator: Adobe Illustrator 24.1.3, SVG Export Plug-In . SVG Version: 6.00 Build 0)  -->
<svg version="1.1" id="图层_1" xmlns="http://www.w3.org/2000/svg" xmlns:xlink="http://www.w3.org/1999/xlink" x="0px" y="0px"
	 viewBox="0 0 1024 1024" style="enable-background:new 0 0 1024 1024;" xml:space="preserve">
<path d="M0,542.8c0-20,0-39.9,0-59.9c23.3,0.2,46.5,0.3,69.8,0.7c5.4,0.1,6.3-2.7,6.9-7.3c1.5-13.5,3.1-27,5.5-40.4
	c21.2-116.4,80.9-208.7,176.2-278.1c62.9-45.8,133.9-71.1,211-78.8c11-1.1,12.9-4.6,12.6-14.1c-0.6-20.5-0.2-41-0.2-61.9
	c20.4,0,39.4,0,58.3,0c0.3,1.4,0.6,2,0.6,2.7c0,20.6,0.4,41.2-0.1,61.9c-0.2,7.6,1.9,10.5,9.8,10.9c12.6,0.7,25.2,2.1,37.5,4.5
	c120.5,22.8,215.6,85.1,285.2,185.8c41.2,59.6,64.3,126.2,72.4,198c1.9,16.5,1.7,16.5,18.1,16.5c19.2,0,38.3,0,57.6,0
	c0,20.4,0,39.5,0,59.3c-22.5,0-44.4,0.2-66.3-0.1c-6.4-0.1-8.7,2-9.1,8.4c-2.6,39-10.3,77.2-25,113.2
	C852.3,831.1,729,927,548.6,947.5c-5.8,0.7-8.1,2.5-8,8.5c0.4,22.6,0.3,45.2,0.4,67.8c-20,0-39.9,0-59.9,0
	c0.2-23.3,0.3-46.5,0.7-69.8c0.1-5.4-2.7-6.3-7.3-6.9c-15.8-1.8-31.8-3.1-47.3-6.3c-111.8-23.3-202-80.7-269.6-172.9
	c-47.7-65-74-138.3-81-218.5c-0.4-4.7-1.4-7.4-6.8-7.3C46.6,542.5,23.3,542.6,0,542.8z M481.2,889c0.2-3.9,0.5-7.2,0.5-10.4
	c0-19,0.2-37.9-0.4-56.9c-0.1-2.1-4.4-5.1-7.2-5.8c-20.6-5-42.1-7.3-61.8-14.7C295.8,757.6,227.5,673.9,208,550.6
	c-0.5-3-3.9-7.9-6-8c-22.2-0.6-44.3-0.4-66.5-0.4C141.9,711.5,289.8,877.3,481.2,889z M135.3,483.5c22.3,0,43.9,0.2,65.5-0.3
	c2.5-0.1,6.3-4.2,7-7c2.1-8.7,2.8-17.7,4.5-26.4c24.4-124.5,134.4-225.6,260.7-239.6c6.9-0.8,8.9-3.4,8.8-10
	c-0.3-18.6-0.1-37.3-0.2-55.9c0-2.5-0.6-5-0.9-7.5C292.2,147.9,142.5,311.5,135.3,483.5z M541.3,206.5
	C698.3,234,790,326,817.5,482.6c22.7,0,45.5,0,68.4,0c0.1-63.3-34-165.5-110.8-239.4c-65.2-62.8-142.6-98.4-233.7-106.5
	C541.3,161.3,541.3,184.1,541.3,206.5z M541.4,889.4c99.8-9.8,182.9-50.3,249.5-123.5c57.2-62.9,89-137.2,96.6-222.6
	c-24.7,0-47.7,0-69.9,0c-27.9,156.8-119.6,248.5-276.1,275.8C541.4,841.6,541.4,864.5,541.4,889.4z M266.1,482.5
	c2.1,0.4,3.7,0.9,5.3,0.9c34.2,0.1,68.5-0.1,102.7,0.2c6.4,0.1,7.6-3.6,9-8.2c14.5-45.8,44.7-76,90.5-90.4c6-1.9,8.3-4.5,8.3-11
	c-0.3-32.6-0.1-65.1-0.2-97.7c0-2.8-0.6-5.6-0.9-8.3C371.3,278.8,277.2,372.2,266.1,482.5z M480.8,757.7c0.4-1.9,0.8-3.2,0.8-4.4
	c0.1-34.6,0.2-69.1-0.2-103.7c0-2.9-4.1-7.3-7.1-8.2c-46-14.9-76.7-45-91.1-91.3c-2-6.4-5-8-11.2-8c-32.2,0.3-64.5,0.1-96.7,0.2
	c-2.9,0-5.8,0.4-8.7,0.6C274.1,644.5,364.7,746.3,480.8,757.7z M540.9,269.1c0,36.4-0.2,71.9,0.3,107.4c0,2.7,4.6,6.6,7.8,7.7
	c45.5,15.1,75.8,45.2,90.3,90.8c2,6.3,4.6,8.3,11,8.2c28.6-0.3,57.1-0.1,85.7-0.1c6.2,0,12.4,0,18.7,0
	C747.2,376.2,649.3,277,540.9,269.1z M540.9,756.3c92,5.6,224.6-127.5,213.3-213.7c-35.7,0-71.6-0.1-107.4,0.3
	c-2.2,0-5.6,3.3-6.4,5.7c-14.9,47.3-45.8,78.4-93,93.4c-2.6,0.8-6.1,4.6-6.1,7C540.8,684.5,540.9,720.1,540.9,756.3z"/>
</svg>
