<?xml version="1.0" encoding="utf-8"?>
<!-- Generator: Adobe Illustrator 24.1.3, SVG Export Plug-In . SVG Version: 6.00 Build 0)  -->
<svg version="1.1" id="图层_1" xmlns="http://www.w3.org/2000/svg" xmlns:xlink="http://www.w3.org/1999/xlink" x="0px" y="0px"
	 viewBox="0 0 1024 1024" style="enable-background:new 0 0 1024 1024;" xml:space="preserve">
<g>
	<path d="M1023.8,639.7c0-94.5,0-189,0-283.5c0-30.3-12.5-42.7-43.1-42.7c-45.7,0-91.4,0-137.1,0c-29.5,0-42.5,12.9-42.5,42.5
		c0,190.9,0.1,381.8-0.3,572.7c0,9.6,3.1,11.3,11.7,11.2c66.6-0.3,133.2-0.4,199.8,0.1c10.2,0.1,11.6-3.2,11.6-12.3
		C1023.7,831.8,1023.8,735.7,1023.8,639.7z"/>
	<path d="M756.7,697c0-75.5,0-151,0-226.5c0-28.7-13.2-42.1-41.7-42.1c-46.5-0.1-92.9-0.1-139.4,0c-27.8,0.1-41.3,13.5-41.4,41.4
		c-0.1,153.3,0,306.6-0.2,459.9c0,7.9,1.7,10.4,10.1,10.3c67.4-0.4,134.7-0.4,202.1,0c8.7,0.1,10.8-2.2,10.7-10.8
		C756.6,851.8,756.7,774.4,756.7,697z"/>
	<path d="M448.6,562.8c-46.5-0.1-93,0-139.5,0c-28.6,0-41.8,13.2-41.9,41.9c-0.1,53.1,0,106.2,0,159.2c0,55.4,0.1,110.8-0.1,166.2
		c0,7,1,10,9.2,9.9c68.2-0.4,136.4-0.3,204.6,0c7.2,0,9-1.9,9-9c-0.2-109.3-0.1-218.5-0.2-327.8
		C489.7,576.2,475.8,562.8,448.6,562.8z"/>
	<path d="M105.2,465.6c30.4-3.1,60.5-8.5,90.5-14.3C368,418,516.7,338.6,645.9,221.1c2.6-2.4,4.4-6.5,9.3-6.1
		c0,8.6-0.6,17.1,0.1,25.5c1.8,19.5,16.8,33,35.5,32.7c18.7-0.3,34-14.4,34.7-33.8c1.4-39.5,2.2-79,2.3-118.4
		c0-19.7-15.1-34.2-34.8-34.8c-37.9-1.1-75.9-1.8-113.8-2.3c-22.1-0.3-38.1,14.6-38.5,34.8c-0.4,19.6,14.4,34.5,36.3,35.8
		c10.6,0.6,21.3,0.1,34.7,0.1c-13.4,15.1-26.1,26.2-39,36.9C499.3,252.3,420.3,304,331.1,338.4c-75.3,29-153.4,47.5-233.6,56.9
		c-22.7,2.7-36.4,18.8-34.3,40C65.3,455.2,83,467.8,105.2,465.6z"/>
	<path d="M222.7,734.5c-0.2-23.6-14.8-37.1-38.4-37.1c-48.4-0.1-96.8-0.1-145.3,0c-24.9,0.1-38.8,13.9-38.9,38.8
		C0.1,800.9,0.4,865.6,0,930.3c-0.1,8.7,3,9.8,10.6,9.7c33.7-0.4,67.4-0.2,101.1-0.2c34.1,0,68.2-0.1,102.3,0.1
		c5.7,0,9.2-0.3,9.2-7.8C222.8,866.2,223.3,800.4,222.7,734.5z"/>
</g>
</svg>
