<svg id="图层_1" data-name="图层 1" xmlns="http://www.w3.org/2000/svg" viewBox="0 0 1023.616 1023.616"><path d="M520,.192c17.176,7.944,23.382,21.461,22.211,40.064-1.044,16.593-.076,33.306-.259,49.964-.2,18.578-12.84,31.865-29.949,31.865S482.256,108.8,482.051,90.22c-.183-16.658.785-33.37-.259-49.964C480.621,21.654,486.827,8.136,504,.192Z" transform="translate(-0.192 -0.192)"/><path d="M.192,504c7.944-17.176,21.462-23.382,40.064-22.211,16.594,1.044,33.306.076,49.964.259,18.578.2,31.865,12.84,31.865,29.949S108.8,541.744,90.22,541.949c-16.658.183-33.371-.785-49.964.259C21.654,543.379,8.136,537.173.192,520Z" transform="translate(-0.192 -0.192)"/><path d="M1023.808,520c-7.944,17.176-21.461,23.382-40.064,22.211-16.593-1.044-33.306-.076-49.964-.259-18.578-.2-31.865-12.84-31.865-29.949s13.287-29.744,31.865-29.949c16.658-.183,33.371.785,49.964-.259,18.6-1.171,32.12,5.035,40.064,22.211Z" transform="translate(-0.192 -0.192)"/><path d="M504,1023.808c-17.176-7.944-23.382-21.461-22.211-40.064,1.044-16.593.076-33.306.259-49.964.2-18.578,12.84-31.865,29.949-31.865s29.744,13.287,29.949,31.865c.183,16.658-.785,33.371.259,49.964,1.171,18.6-5.035,32.12-22.211,40.064Z" transform="translate(-0.192 -0.192)"/><path d="M841.848,512.419c-.582,181.526-148.987,329.667-330.017,329.429-181.679-.239-330.942-149.994-329.679-330.766,1.272-182.008,149.825-329.848,330.517-328.93C694.444,183.076,842.428,331.549,841.848,512.419Z" transform="translate(-0.192 -0.192)"/><path d="M298.563,178.2c-7.087-.178-15.943-4.37-21.473-13.6-10.748-17.932-21.433-35.932-31.281-54.365-7.91-14.808-2.527-31.734,11.394-39.733,14.025-8.059,31.19-4.235,40.119,10.187,11,17.766,21.651,35.821,31.175,54.406C338.878,155.359,324.463,178.161,298.563,178.2Z" transform="translate(-0.192 -0.192)"/><path d="M725.574,178.185c-24.965.1-40.447-21.821-30.987-41.094,9.917-20.206,21.611-39.645,33.829-58.579,8.5-13.175,25.915-15.667,39.067-7.626,12.7,7.765,18.637,24.05,11.672,37.371-10.293,19.687-21.755,38.79-33.332,57.768A25.322,25.322,0,0,1,725.574,178.185Z" transform="translate(-0.192 -0.192)"/><path d="M178.271,298c-.432,25.6-22.069,40.672-40.963,31.473-20.23-9.849-39.646-21.582-58.607-33.755-13.263-8.515-15.888-25.756-7.927-38.992C78.666,243.6,95.1,237.9,108.923,245.2c19.354,10.214,38.193,21.452,56.88,32.863C174.631,283.449,178.283,292.4,178.271,298Z" transform="translate(-0.192 -0.192)"/><path d="M957.554,273.38a29.722,29.722,0,0,1-15.013,24.582c-17.13,10.152-34.273,20.308-51.75,29.838-15.45,8.425-32.42,3.732-40.829-10.431-8.686-14.63-4.368-31.96,11.113-41.349,17.306-10.5,34.731-20.881,52.683-30.2C934.224,235.2,957.932,250.032,957.554,273.38Z" transform="translate(-0.192 -0.192)"/><path d="M178.167,726.267c-.193,6.744-4.738,15.4-13.908,20.9-17.648,10.578-35.383,21.048-53.49,30.807C95.6,786.15,78.244,780.737,70.3,766.4c-7.857-14.181-3.784-31.056,10.747-39.985,17.521-10.767,35.28-21.243,53.523-30.717C155.2,684.982,178.4,699.519,178.167,726.267Z" transform="translate(-0.192 -0.192)"/><path d="M875.317,691.988c6.22-.268,11.754,1.954,16.987,4.949,16.132,9.231,32.306,18.395,48.272,27.906,16.3,9.709,21.448,26.69,13.059,41.678-8.516,15.212-26.331,19.523-43.187,10.046-17.071-9.6-34.136-19.236-50.8-29.509a28.834,28.834,0,0,1-12.61-33.8C851.1,700.5,862.255,692.112,875.317,691.988Z" transform="translate(-0.192 -0.192)"/><path d="M332.01,875.217c.3,6.224-1.9,11.772-4.893,17-9.221,16.139-18.4,32.306-27.9,48.278-9.691,16.29-26.73,21.512-41.678,13.171-15.271-8.521-19.642-26.283-10.147-43.144,9.771-17.351,19.6-34.692,30.144-51.577,7.227-11.575,20.752-15.848,33.119-11.95C323.41,851.021,331.847,862.166,332.01,875.217Z" transform="translate(-0.192 -0.192)"/><path d="M725.291,845.779c7.406.218,16.2,4.546,21.709,13.746,10.743,17.934,21.429,35.934,31.254,54.378,7.88,14.791,2.385,31.738-11.594,39.662-13.769,7.806-30.738,4.312-39.468-9.607-11.276-17.977-22.088-36.33-31.76-55.207C685.086,868.556,699.68,845.775,725.291,845.779Z" transform="translate(-0.192 -0.192)"/></svg>