<?xml version="1.0" encoding="utf-8"?>
<!-- Generator: Adobe Illustrator 24.1.3, SVG Export Plug-In . SVG Version: 6.00 Build 0)  -->
<svg version="1.1" id="图层_1" xmlns="http://www.w3.org/2000/svg" xmlns:xlink="http://www.w3.org/1999/xlink" x="0px" y="0px"
	 viewBox="0 0 1024 1024" style="enable-background:new 0 0 1024 1024;" xml:space="preserve">
<path d="M179.8,1024c-38.3-13-56-37.1-57.7-78.4c-0.3-6.6-0.5-13.3-0.5-19.9c0-274.8-0.1-549.5,0.3-824.3c0-17.3,1.8-35.5,7.1-51.8
	c12.4-38.2,45.1-54.8,83.6-42.5c19.6,6.3,39.1,15.3,56.1,26.9c186.4,126.8,372.3,254.4,558.3,381.8c22.6,15.5,42,33.7,52.9,59.4
	c16.7,39.6,6.4,83.8-27.2,115.4c-8.2,7.7-17.2,14.7-26.4,21.1C640.7,738.9,454.8,866,269.1,993.2c-21.3,14.6-44,25.7-69.4,30.8
	C193.1,1024,186.4,1024,179.8,1024z"/>
</svg>
