<?xml version="1.0" encoding="utf-8"?>
<!-- Generator: Adobe Illustrator 24.1.3, SVG Export Plug-In . SVG Version: 6.00 Build 0)  -->
<svg version="1.1" id="图层_1" xmlns="http://www.w3.org/2000/svg" xmlns:xlink="http://www.w3.org/1999/xlink" x="0px" y="0px"
	 viewBox="0 0 1024 1024" style="enable-background:new 0 0 1024 1024;" xml:space="preserve">
<style type="text/css">
	.st0{fill:#010101;}
</style>
<path d="M732.7,544.8c-4.3,21.3-9.2,39.8-17,57.4c-35.6,80.2-119,139.6-222,131.6c-92.8-7.2-168-71.3-194-154.7
	c-2.3-7.5-4.5-15.1,5.2-18.2c9.2-2.9,11.7,4.5,14.1,11.5c26.3,75.8,78.6,122.6,157.2,138.5c105.3,21.3,212.5-51.3,231.2-158.6
	c-4.5,5.1-8.8,10.4-13.4,15.3c-4.8,5.1-10.5,6.5-15.6,1c-4.6-4.9-3.8-10.3,0.9-15c12.2-12.3,24.4-24.6,36.7-36.7
	c5.1-5,10.8-5,15.9,0c12.6,12.3,25.1,24.8,37.5,37.4c4.6,4.7,5,10.3,0,15c-4.6,4.4-9.8,3.9-14.2-0.6
	C748,561.3,741.1,553.7,732.7,544.8z"/>
<path d="M316.9,472.1c4.2-5.1,8.1-10.4,12.5-15.3c4.6-5.1,10.2-6.9,15.6-1.5c5.2,5.2,4,10.8-1,15.7c-12,12-24,24-36.1,36
	c-5.5,5.4-11.1,5.3-16.6-0.2c-12-12-24.1-24-36.2-35.9c-5-4.9-6.4-10.5-1.1-15.7c5.4-5.3,10.9-3.4,15.7,1.5
	c7,7.1,13.9,14.2,21.8,22.3c5.6-32.1,15.4-61,32.7-86.7C375.3,316.8,447,281,537.1,291.4c93.9,10.8,156.2,64.9,187.5,154.4
	c2.4,6.9,3.3,13.7-5.1,16.6c-9.1,3.1-12-3.5-14.5-10.7c-26.3-75.7-78.5-122.7-157.3-138.6c-105.1-21.2-213.6,52.3-232.9,157
	C315.5,470.7,316.2,471.4,316.9,472.1z"/>
<path class="st0" d="M257.1,664.8c-0.3,4.3-2.2,7.5-6,9.7c-26.2,15.1-52.3,30.2-78.5,45.3c-6.3,3.6-11.9,2.7-15.3-3.8
	c-3.2-6.1-0.4-10.8,5.2-14.1c25.9-14.9,51.7-30,77.7-44.8C248.7,652.4,257,656.4,257.1,664.8z"/>
<path class="st0" d="M867.9,710.5c-0.4,9.9-8.7,13.7-17.1,8.9c-17.9-10.1-35.7-20.6-53.5-30.9c-7.8-4.5-15.5-9-23.3-13.4
	c-6-3.4-9.2-8.2-5.8-14.8c3.4-6.6,9.3-6.8,15.3-3.4c25.9,14.9,51.7,29.9,77.6,44.8C865.2,704.1,867.9,707.1,867.9,710.5z"/>
<path class="st0" d="M246.2,369.3c-2.3-1-5.4-2.1-8.3-3.7c-24.5-14.1-48.8-28.3-73.3-42.3c-6.4-3.7-11.4-8.1-6.9-15.8
	c4.4-7.6,10.7-5.8,17.1-2c24.9,14.5,50,28.9,75.1,43.3c5,2.9,8.3,6.6,6.7,12.9C255.3,366.6,251.7,368.5,246.2,369.3z"/>
<path class="st0" d="M867.8,313.9c-0.1,3.2-2.7,6-6.4,8.1c-25.9,14.9-51.8,29.9-77.6,44.8c-6,3.5-11.9,3.5-15.5-3
	c-3.6-6.4-0.6-11.4,5.4-14.9c25.6-14.7,51.1-29.6,76.8-44.3C859.3,299.7,868.1,303.9,867.8,313.9z"/>
<path class="st0" d="M369.2,778.2c-1.1,2.4-2.2,5.5-3.9,8.3c-13.9,24.2-27.9,48.3-41.8,72.5c-3.6,6.2-7.8,11.9-15.7,7.6
	c-8.3-4.5-6.2-10.9-2.2-17.8c14.6-24.9,28.9-50,43.3-75.1c3-5.2,6.9-8,13.1-6.2C367,769,368.7,772.7,369.2,778.2z"/>
<path class="st0" d="M369.3,246.2c-0.8,5-2.3,8.6-6.6,10.1c-5,1.7-9.4,0.5-12.2-3.9c-4.4-7-8.4-14.3-12.6-21.5
	c-10.8-18.7-21.4-37.5-32.4-56c-3.8-6.5-5.7-12.7,1.9-17.1c7.7-4.5,12.2,0.5,15.8,6.9c14.2,24.8,28.5,49.4,42.8,74.2
	C367.5,241.3,368.4,244.1,369.3,246.2z"/>
<path class="st0" d="M663.3,257c-7.1-0.3-10.7-8.4-5.9-17c8.7-15.7,17.8-31.1,26.8-46.7c5.8-10.1,11.7-20.1,17.5-30.2
	c3.4-6,8.1-9.3,14.7-5.7c7,3.9,6.6,9.9,2.9,16.2c-14.7,25.3-29.3,50.6-43.8,75.9C672.9,253.8,669.9,257.1,663.3,257z"/>
<path class="st0" d="M664,766.9c5.6,0.1,8.7,2.8,11,6.9c14.7,25.6,29.5,51.2,44.3,76.8c3.7,6.4,3.8,12.4-3.3,16.1
	c-6.7,3.5-11.2-0.1-14.6-6c-14.7-25.6-29.6-51.1-44.2-76.8C652.4,775.3,656.4,767,664,766.9z"/>
<path d="M522.1,160.2c0,14.3-0.1,28.6,0,42.9c0.1,7.3-2.2,12.9-10.3,12.9c-8.1,0-10.1-5.8-10.1-13c0.1-29.2,0.1-58.5,0-87.7
	c0-7,2.6-12.3,9.8-12.5c7.7-0.2,10.7,5.1,10.6,12.6C522,130.3,522.1,145.2,522.1,160.2z"/>
<path d="M159.1,501.8c14.6,0,29.2,0.1,43.9,0c7.2-0.1,13,2.1,12.9,10.2c0,8.1-5.7,10.2-13,10.2c-29.2-0.1-58.5-0.1-87.7,0
	c-7,0-12.3-2.6-12.5-9.7c-0.3-7.7,5-10.7,12.5-10.7C129.9,502,144.5,501.8,159.1,501.8z"/>
<path d="M864.8,501.8c14.6,0,29.2,0.1,43.9,0c7.5-0.1,12.8,2.9,12.5,10.7c-0.3,7.1-5.5,9.8-12.5,9.7c-29.6-0.1-59.1-0.1-88.7,0
	c-7,0-12-2.7-12-10.2c0-7.4,5-10.2,12-10.2C834.9,501.9,849.9,501.8,864.8,501.8z"/>
<path d="M522.1,864.9c0,14.6-0.1,29.2,0,43.9c0.1,7.5-3,12.8-10.7,12.5c-7.1-0.3-9.7-5.5-9.7-12.5c0.1-29.6,0.1-59.1,0-88.7
	c0-7,2.7-12,10.2-12c7.4,0,10.2,5,10.1,12C522.1,835,522.1,849.9,522.1,864.9z"/>
</svg>
