<?xml version="1.0" encoding="utf-8"?>
<!-- Generator: Adobe Illustrator 24.1.3, SVG Export Plug-In . SVG Version: 6.00 Build 0)  -->
<svg version="1.1" id="图层_1" xmlns="http://www.w3.org/2000/svg" xmlns:xlink="http://www.w3.org/1999/xlink" x="0px" y="0px"
	 viewBox="0 0 1024 1024" style="enable-background:new 0 0 1024 1024;" xml:space="preserve">
<path d="M47.7,513.6c0-83.7-0.1-167.4,0-251c0.1-105.2,69.2-188.7,172.6-208c12-2.2,24.4-2.9,36.6-2.9c168.7-0.2,337.3-0.2,506-0.1
	c104.2,0.1,189.2,71.9,206.6,174.3c1.9,11.4,2.6,23.1,2.6,34.7c0.2,168.7,0.2,337.4,0.1,506.1c-0.1,104.3-71.5,189.1-174.1,206.8
	c-12,2.1-24.4,2.6-36.7,2.7c-167.7,0.2-335.3,0.2-503,0.1c-104.7-0.1-188-69-207.5-171.9c-2.4-12.9-3.1-26.4-3.1-39.6
	C47.6,680.9,47.7,597.3,47.7,513.6z M79.6,513.3c0,84.4-0.1,168.7,0,253.1c0.1,100.7,77.2,177.8,178,177.9
	c168.4,0.1,336.7,0.2,505.1,0C863,944.2,940.2,867,940.3,766.9c0.2-168.7,0.2-337.4,0-506.2C940.2,160.6,863,83.5,762.8,83.4
	c-168.7-0.1-337.4-0.1-506.1,0.1c-11.5,0-23.3,0.9-34.6,3.2c-84.5,16.8-142.3,87.4-142.5,173.5C79.5,344.6,79.6,429,79.6,513.3z"/>
<path d="M414.3,513.9c0-72.7,0-145.4,0-218.2c0-42.5,26.5-69,69.1-68.7c38.8,0.3,77.6-1.9,116.1,5.7
	C720.4,256.4,816,361.9,827.1,484.5c13.7,151.1-83.8,281.9-232.4,311.3c-41.1,8.1-82.8,6.2-124.1,4.1c-32.8-1.7-56.1-30.3-56.2-63.9
	C414.2,662,414.3,587.9,414.3,513.9z M446.2,513.2c0,73,0,146.1,0,219.1c0,24.3,12.4,36.6,36.9,36.6c21.6,0,43.2,0.6,64.7-0.3
	c14.9-0.6,29.9-1.9,44.4-5c137.9-28.9,224.9-158,200.4-296.8c-18.2-102.9-104-188.7-207-203.7c-33.6-4.9-68.1-3.5-102.2-4.3
	c-25.1-0.6-37.1,12-37.1,37.2C446.2,368.5,446.2,440.8,446.2,513.2z"/>
<path d="M239,513.4c0-74.4-0.3-148.7,0.2-223.1c0.2-26.6,13.1-46.5,37.3-57.5c24.3-11.1,47.5-7.4,67.9,9.7
	c15.7,13.1,22.3,30.7,22.3,51.1c-0.1,89,0,177.9,0,266.9c0,59.1,0.4,118.2-0.2,177.3c-0.3,26.6-13.4,46.4-37.7,57.3
	c-24.4,10.9-47.5,7-67.8-10.2c-15.3-13-21.9-30.3-21.8-50.3C239.1,660.8,239,587.1,239,513.4z M270.9,513.9c0,38.9,0,77.7,0,116.6
	c0,35.5-0.2,71.1,0.1,106.6c0.1,16.8,12.5,30.1,28.6,31.8c16,1.6,31.1-9.3,34.4-25.4c0.8-4.2,0.7-8.6,0.7-12.9
	c0-144.5,0-288.9,0-433.4c0-3,0.2-6-0.1-9c-1.5-13-8.2-22.4-20.4-27.2c-21.5-8.5-43.1,7.3-43.2,31.7
	C270.8,366.4,270.9,440.1,270.9,513.9z"/>
<path d="M510,513.6c0-55.1,0-110.2,0-165.4c0-22.2,3.5-25.8,26.1-25.6c82.5,0.7,143.9,37.1,179.2,111.7
	c58.9,124.6-33,269.2-170.8,270.9c-4.3,0.1-8.6,0.1-12.9,0c-16.4-0.1-21.6-5.1-21.6-21.3c0-50.8,0-101.6,0-152.4
	C510,525.5,510,519.5,510,513.6z M542.3,672.3c45.9,3.2,106.5-24.5,137.5-78.6c32-55.7,28.2-125.2-11-176
	c-31.8-41.3-74.2-61.9-126.5-63.2C542.3,461.4,542.3,566.9,542.3,672.3z"/>
</svg>
