<?xml version="1.0" encoding="utf-8"?>
<!-- Generator: Adobe Illustrator 24.1.3, SVG Export Plug-In . SVG Version: 6.00 Build 0)  -->
<svg version="1.1" id="图层_1" xmlns="http://www.w3.org/2000/svg" xmlns:xlink="http://www.w3.org/1999/xlink" x="0px" y="0px"
	 viewBox="0 0 1024 1024" style="enable-background:new 0 0 1024 1024;" xml:space="preserve">
<g>
	<path d="M223,602.8c0-94.5,0-189,0-283.5c0-30.3-12.5-42.7-43.1-42.7c-45.7,0-91.4,0-137.1,0c-29.5,0-42.5,12.9-42.5,42.5
		C0.2,510.1,0.3,701,0,891.9c0,9.6,3.1,11.3,11.7,11.2c66.6-0.3,133.2-0.4,199.8,0.1c10.2,0.1,11.6-3.2,11.6-12.3
		C222.8,794.9,223,698.8,223,602.8z"/>
	<path d="M489.8,660.1c0-75.5,0-151,0-226.5c0-28.7-13.2-42.1-41.7-42.1c-46.5-0.1-92.9-0.1-139.4,0c-27.8,0.1-41.3,13.5-41.4,41.4
		c-0.1,153.3,0,306.6-0.2,459.9c0,7.9,1.7,10.4,10.1,10.3c67.4-0.4,134.7-0.4,202.1,0c8.7,0.1,10.8-2.2,10.7-10.8
		C489.6,815,489.8,737.5,489.8,660.1z"/>
	<path d="M715.6,525.9c-46.5-0.1-93,0-139.5,0c-28.6,0-41.8,13.2-41.9,41.9c-0.1,53.1,0,106.2,0,159.2c0,55.4,0.1,110.8-0.1,166.2
		c0,7,1,10,9.2,9.9c68.2-0.4,136.4-0.3,204.6,0c7.2,0,9-1.9,9-9c-0.2-109.3-0.1-218.5-0.2-327.8C756.6,539.4,742.7,526,715.6,525.9z
		"/>
	<path d="M259.5,185.5c23.7,19.3,48.7,36.8,74,53.9C479,337.7,640.2,386.6,814.7,394.9c3.5,0.2,7.7-1.5,10.9,2.3
		c-6.1,6.1-12.6,11.7-17.9,18.1c-12.5,15-11.5,35.3,2,48.2c13.4,13,34.2,13.9,48.4,0.6c28.9-26.9,57.4-54.3,85.4-82.1
		c14-13.9,13.5-34.8,0-49.2c-26.1-27.6-52.3-55-78.8-82.1c-15.4-15.8-37.2-16.6-51.8-2.6c-14.2,13.6-14.2,34.5,0.4,51
		c7.1,8,15,15.2,24.4,24.6c-20.2,1.2-37,0.1-53.7-1.5c-94.8-8.9-187.3-28.2-274.7-67c-73.8-32.7-142.1-74.8-205.4-124.9
		c-17.9-14.1-39-12.5-52.5,4.1C238.6,149.9,242.2,171.4,259.5,185.5z"/>
	<path d="M1023.6,697.8c-0.2-23.6-14.8-37.1-38.4-37.1c-48.4-0.1-96.8-0.1-145.3,0c-24.9,0.1-38.8,13.9-38.9,38.8
		c-0.1,64.7,0.1,129.4-0.3,194.1c-0.1,8.7,3,9.8,10.6,9.7c33.7-0.4,67.4-0.2,101.1-0.2c34.1,0,68.2-0.1,102.3,0.1
		c5.7,0,9.2-0.3,9.2-7.8C1023.7,829.4,1024.1,763.6,1023.6,697.8z"/>
</g>
</svg>
