<svg id="图层_1" data-name="图层 1" xmlns="http://www.w3.org/2000/svg" viewBox="0 0 1006.891 1023.453"><path d="M983.472,961.183c-22.979-.562-45.975-.122-68.964-.163-16.085-.029-16.256-.074-21.333-15.02-34.924-102.815-70.593-205.373-105.928-308.046-34.9-101.414-69.6-202.9-104.815-304.2-3.419-9.837-2.766-10.9,7.783-10.9q115.443-.087,230.888,0c11.246.008,11.893.749,12,11.906.141,14.99-.615,30.008.262,44.964,1.387,23.66,23.883,38.622,44.575,29.613,13.916-6.058,20.437-17.59,20.538-32.633.185-27.648-.128-55.3.135-82.946.135-14.142-5.418-24.885-16.567-33.434q-74.547-57.156-148.6-114.957c-57.357-44.533-114.9-88.825-172.069-133.6C654.8,6.6,648.623,1.273,639.96.259h-255.9c-23.689,14.26-44.165,32.819-65.93,49.622C226.437,120.67,135.1,191.926,43.463,262.781,32.77,271.049,27.9,280.943,28.112,294.4c.436,27.309.074,54.63.15,81.945.054,19.174,12.6,33.038,29.815,33.177,17.23.14,30.017-13.718,30.123-32.807.086-15.657.717-31.357-.243-46.954-.578-9.384,2.834-10.556,11.059-10.524,79.625.3,159.252.18,238.878.184,11.381,0,11.4.019,7.849,10.319Q276.3,531.236,206.856,732.725,168.572,843.832,130.5,955.01c-2.266,6.655-5.051,9.091-12.316,8.937-24.976-.528-49.971-.236-74.958-.191-17.3.031-29.673,8.857-32.84,23.292-3.343,15.23,3.984,27.728,20.6,35.235.516.233.816.942,1.217,1.429H991.821c16.353-3.965,24.318-13.306,24.651-28.909C1016.887,975.334,1003.865,961.681,983.472,961.183ZM662.662,103.139c0-2.822-1.016-5.876,1.559-9.6L876.2,257.855c-3.915,2.53-6.951,1.541-9.772,1.544-64.269.074-128.539-.1-192.806.243-8.34.044-11.37-1.356-11.266-10.672C662.892,200.364,662.582,151.75,662.662,103.139ZM421.24,67.719c-.025-6.213,1.623-7.665,7.717-7.638q82.878.373,165.757-.02c6.73-.036,8.125,1.992,8.059,8.308-.319,30.615-.144,61.235-.144,91.852,0,30.285-.161,60.572.132,90.854.062,6.321-1.327,8.579-8.2,8.542q-82.377-.436-164.759-.043c-6.224.023-8.617-1.178-8.584-8.149Q421.662,159.573,421.24,67.719Zm-47.8,365.293q18.743-52.5,36.242-105.448c2.206-6.664,5.269-8.39,11.953-8.306,29.971.378,59.95.165,89.926.165,30.642,0,61.286.165,91.925-.143,5.945-.06,8.659,1.741,10.57,7.425q18.715,55.676,38.232,111.079c2.158,6.088.873,9.487-3.417,13.748Q583.3,516.664,518.2,582.266c-4.9,4.945-7.328,5.049-12.28.041-39.814-40.254-79.95-80.189-119.992-120.217-2.355-2.355-4.334-5.627-7.184-6.851C366.6,450.024,370.167,442.178,373.438,433.012ZM151,259.411c-.575,0-1.149-.359-3.632-1.187L361.416,92.046v20.993c0,45.907-.079,91.815.1,137.721.022,5.892-.631,8.895-7.894,8.864C286.081,259.333,218.541,259.443,151,259.411Zm70.117,616.217q63.028-183.009,125.848-365.407c4.014.006,5.379,3.122,7.358,5.1,36.307,36.179,72.44,72.535,108.885,108.574,4.924,4.869,6.17,7.324.459,13Q346.456,753.379,229.751,870.378C227.363,872.763,225.487,876.488,221.119,875.628Zm2.3,87.817c-.668-3.057,2.068-3.93,3.479-5.342q139.45-139.6,278.984-279.13c3.826-3.83,6.073-6.458,11.558-.948Q658.41,819.637,799.861,960.77c.452.452.824.984,2.224,2.675ZM798.326,874.4Q679.31,755.424,560.237,636.5c-4.2-4.186-5.585-6.487-.5-11.5,37.668-37.184,74.964-74.745,112.4-112.169,1.1-1.1,2.413-2.007,4.553-3.763,42.658,123.924,84.831,246.441,127.63,370.774C801.262,877.079,799.729,875.806,798.326,874.4Z" transform="translate(-9.591 -0.259)"/></svg>