<svg id="图层_1" data-name="图层 1" xmlns="http://www.w3.org/2000/svg" viewBox="0 0 818.518 818.598"><defs><style>.cls-1{fill:#010101;}</style></defs><path d="M732.719,544.822c-4.267,21.345-9.21,39.8-17.014,57.372-35.6,80.151-119.031,139.613-222.041,131.615-92.774-7.2-167.982-71.268-193.954-154.7-2.339-7.517-4.5-15.145,5.206-18.171,9.16-2.855,11.654,4.474,14.083,11.472C345.3,648.183,397.577,695,476.24,710.908c105.3,21.3,212.5-51.307,231.207-158.631-4.461,5.128-8.774,10.394-13.423,15.344-4.771,5.08-10.455,6.481-15.636.994-4.618-4.89-3.779-10.313.918-15.032C691.519,541.312,703.7,529,716.027,516.85c5.1-5.029,10.773-5.024,15.871-.037q18.923,18.509,37.481,37.385c4.589,4.694,4.968,10.3.039,15.014-4.587,4.384-9.816,3.873-14.184-.57C748.044,561.326,741.124,553.746,732.719,544.822Z" transform="translate(-102.727 -102.693)"/><path d="M316.927,472.142c4.157-5.1,8.123-10.372,12.522-15.253,4.587-5.089,10.212-6.941,15.629-1.534,5.246,5.235,3.978,10.767-1.016,15.736-12.044,11.985-24.011,24.048-36.127,35.958-5.457,5.365-11.109,5.292-16.607-.185q-18.057-17.989-36.152-35.94c-4.973-4.94-6.361-10.5-1.082-15.731,5.382-5.338,10.894-3.448,15.714,1.458,6.955,7.078,13.879,14.186,21.809,22.3,5.619-32.15,15.434-61.016,32.737-86.655,50.929-75.459,122.681-111.271,212.7-100.9,93.919,10.819,156.226,64.925,187.489,154.351,2.415,6.91,3.35,13.677-5.1,16.559-9.141,3.12-11.963-3.477-14.468-10.686C678.65,375.865,626.506,328.9,547.726,313.05c-105.14-21.159-213.594,52.323-232.877,156.994Z" transform="translate(-102.727 -102.693)"/><path class="cls-1" d="M257.112,664.813a11.263,11.263,0,0,1-6.037,9.666Q211.8,697.092,172.589,719.8c-6.251,3.607-11.853,2.652-15.262-3.762-3.241-6.1-.43-10.79,5.235-14.057,25.885-14.929,51.686-30,77.671-44.755C248.726,652.405,256.967,656.413,257.112,664.813Z" transform="translate(-102.727 -102.693)"/><path class="cls-1" d="M867.906,710.464c-.434,9.87-8.7,13.68-17.111,8.931-17.923-10.12-35.657-20.573-53.478-30.875-7.76-4.486-15.514-8.982-23.322-13.383-6.016-3.391-9.225-8.247-5.791-14.779,3.445-6.553,9.271-6.844,15.336-3.351q38.841,22.371,77.649,44.8C865.22,704.125,867.929,707.116,867.906,710.464Z" transform="translate(-102.727 -102.693)"/><path class="cls-1" d="M246.178,369.28a83.519,83.519,0,0,1-8.267-3.743c-24.463-14.058-48.841-28.265-73.314-42.306-6.372-3.656-11.426-8.052-6.928-15.8,4.441-7.647,10.667-5.756,17.145-1.98,24.948,14.543,50.025,28.867,75.059,43.264,5.017,2.885,8.314,6.629,6.712,12.94C255.333,366.59,251.677,368.455,246.178,369.28Z" transform="translate(-102.727 -102.693)"/><path class="cls-1" d="M867.817,313.927c-.144,3.171-2.667,5.979-6.35,8.1q-38.836,22.368-77.641,44.789c-6,3.462-11.874,3.479-15.49-2.973-3.592-6.412-.6-11.373,5.442-14.854,25.6-14.746,51.122-29.631,76.782-44.274C859.329,299.711,868.071,303.926,867.817,313.927Z" transform="translate(-102.727 -102.693)"/><path class="cls-1" d="M369.246,778.186c-1.085,2.35-2.245,5.464-3.877,8.306q-20.826,36.276-41.783,72.476c-3.551,6.171-7.789,11.868-15.68,7.623-8.3-4.467-6.174-10.949-2.161-17.794,14.6-24.917,28.91-50.01,43.293-75.057,2.958-5.152,6.9-8.023,13.093-6.193C367.009,768.988,368.687,772.736,369.246,778.186Z" transform="translate(-102.727 -102.693)"/><path class="cls-1" d="M369.313,246.152c-.765,5.036-2.256,8.6-6.631,10.1-5.035,1.723-9.423.509-12.226-3.922-4.434-7.01-8.415-14.307-12.564-21.5-10.785-18.688-21.441-37.453-32.4-56.041-3.822-6.484-5.662-12.686,1.946-17.148,7.748-4.545,12.187.549,15.826,6.888,14.213,24.757,28.542,49.448,42.75,74.207A70,70,0,0,1,369.313,246.152Z" transform="translate(-102.727 -102.693)"/><path class="cls-1" d="M663.263,256.976c-7.09-.317-10.71-8.441-5.906-17.046,8.737-15.652,17.794-31.127,26.753-46.655,5.806-10.065,11.736-20.059,17.49-30.153,3.409-5.981,8.072-9.342,14.672-5.674,7.048,3.917,6.63,9.87,2.938,16.233q-21.988,37.9-43.828,75.893C672.925,253.841,669.9,257.1,663.263,256.976Z" transform="translate(-102.727 -102.693)"/><path class="cls-1" d="M663.979,766.887c5.649.147,8.684,2.83,11,6.865q22.1,38.42,44.336,76.759c3.739,6.447,3.808,12.393-3.261,16.132-6.679,3.532-11.22-.125-14.609-6.024C686.732,835,671.8,809.494,657.221,783.8,652.4,775.3,656.391,767.045,663.979,766.887Z" transform="translate(-102.727 -102.693)"/><path d="M522.13,160.157c0,14.288-.1,28.577.043,42.863.074,7.264-2.191,12.927-10.253,12.887-8.1-.041-10.132-5.806-10.1-13.024q.174-43.859-.01-87.72c-.034-7.033,2.631-12.258,9.76-12.463,7.733-.223,10.7,5.107,10.614,12.6C522.009,130.251,522.129,145.205,522.13,160.157Z" transform="translate(-102.727 -102.693)"/><path d="M159.137,501.849c14.62,0,29.24.1,43.857-.045,7.239-.071,12.957,2.117,12.944,10.2s-5.741,10.213-12.971,10.188q-43.856-.154-87.714.012c-7.014.032-12.27-2.621-12.517-9.737-.268-7.734,5.045-10.745,12.545-10.662C129.9,501.965,144.518,501.85,159.137,501.849Z" transform="translate(-102.727 -102.693)"/><path d="M864.84,501.849c14.618,0,29.238.115,43.854-.046,7.5-.083,12.814,2.939,12.541,10.666-.251,7.1-5.5,9.766-12.522,9.733-29.568-.137-59.137-.079-88.7-.041-6.97.009-11.966-2.732-11.975-10.165s4.974-10.193,11.956-10.165C834.939,501.89,849.89,501.849,864.84,501.849Z" transform="translate(-102.727 -102.693)"/><path d="M522.129,864.9c0,14.621-.116,29.242.048,43.86.085,7.519-2.985,12.8-10.689,12.526-7.111-.254-9.721-5.526-9.685-12.547.149-29.572.093-59.145.04-88.718-.013-7,2.728-11.962,10.157-11.954s10.181,4.988,10.15,11.976C522.084,834.99,522.13,849.943,522.129,864.9Z" transform="translate(-102.727 -102.693)"/></svg>