<?xml version="1.0" encoding="utf-8"?>
<!-- Generator: Adobe Illustrator 24.1.3, SVG Export Plug-In . SVG Version: 6.00 Build 0)  -->
<svg version="1.1" id="图层_1" xmlns="http://www.w3.org/2000/svg" xmlns:xlink="http://www.w3.org/1999/xlink" x="0px" y="0px"
	 viewBox="0 0 1024 1024" style="enable-background:new 0 0 1024 1024;" xml:space="preserve">
<style type="text/css">
	.st0{fill:#FFFFFF;}
</style>
<path d="M-3.1,910.2c8.9-24.3,28.2-29.7,52.9-26.9c0-11.9-0.2-22.8,0.1-33.6c0.3-11.1,5.9-18,15.1-19.2c10.5-1.4,19.4,6,19.8,17.3
	c0.4,11.2,0.1,22.5,0.1,34.8c15.4,0.8,30.8-1.3,42.7,10.7c11.6,11.8,10.5,26.6,10.6,42.7c10.6,0,20.8,0,30.9,0
	c13.5,0.1,21.2,6.1,21.5,16.8c0.4,11.2-7.4,18-21.2,18.3c-9.9,0.2-19.9,0-31.8,0c3.1,24.1-2.2,43.8-26.8,52.8c-28.6,0-57.2,0-85.8,0
	c-14-4.7-23.3-13.9-27.9-27.9C-3.1,967.4-3.1,938.8-3.1,910.2z"/>
<path d="M905.2,1024c-24.2-8.9-29.7-28.1-27-52.8c-11.6,0-22.2,0.9-32.5-0.3c-6-0.7-13.3-3.6-16.9-8c-3-3.6-3.6-12.3-1.3-16.3
	c2.8-4.8,9.7-9.3,15.3-10.1c11-1.6,22.4-0.5,34.7-0.5c0.7-15.4-1.2-30.8,10.7-42.7c11.8-11.7,26.6-10.4,42.8-10.6
	c0-11.9-0.1-23.4,0-34.9c0.1-8.3,4.2-14,11.8-16.7c7.3-2.6,14.4-0.9,18.7,5.4c2.8,4.1,4,9.8,4.3,14.8c0.6,9.9,0.2,19.9,0.2,31.5
	c5.9,0,11-0.1,16.2,0c22.3,0.7,36.5,15.1,36.6,37.4c0.1,19.9-0.7,39.9,0.2,59.8c1,21.7-7.4,36.5-28.1,43.8
	C962.4,1024,933.8,1024,905.2,1024z"/>
<path d="M-3.1,29.9C4.2,9.1,18.9,0.8,40.6,1.8C59.9,2.6,79.2,1.9,98.5,2C123.8,2,137.7,16,138,41.5c0,3.9,0,7.8,0,13.2
	c11.7,0,22.6-0.1,33.4,0c8.8,0.1,15.5,3.7,18.4,12.5c3.6,11.1-4.4,22.1-16.9,22.5c-11.2,0.4-22.5,0.1-34.7,0.1
	c-0.3,15.7,1.2,31-10.7,42.8c-11.8,11.7-26.6,10.2-42.6,10.4c0,11.1,0.1,21.6,0,32.1c-0.1,12.5-6.5,20.1-17,20.4
	c-10.9,0.3-17.8-7.3-18.1-20.4c-0.2-10.2,0-20.5,0-32.7c-24.2,3.1-43.9-2.1-52.9-26.8C-3.1,87.1-3.1,58.5-3.1,29.9z"/>
<path d="M-3.1,469.1c9.3-23.9,28.8-28.9,52.8-26.2c0-11.3-0.1-21.2,0-31.1c0.2-13.9,6.7-22.1,17.5-22.2c10.8-0.1,17.5,8.2,17.6,22
	c0.1,9.3,0.1,18.6,0.2,27.9c0,0.6,0.4,1.2,1.2,3.2c5,0,10.5-0.2,16.1,0c20,0.7,34.4,13.4,35.2,33.4c1,24.6,1,49.2,0,73.8
	c-0.8,19.9-15.2,32.7-35.2,33.4c-5.3,0.2-10.6,0-17.5,0c0,11.1,0.1,21.6,0,32.1c-0.1,12.9-7,21-17.6,21c-10.5,0-17.3-8.1-17.5-21.1
	c-0.2-10.2,0-20.4,0-32.1c-24.1,2.7-43.5-2.3-52.9-26.2C-3.1,527.6-3.1,498.3-3.1,469.1z"/>
<path d="M464,1024c-20-8.4-28.7-23.4-26.5-44.9c0.2-2.2-0.4-4.5-0.9-8.2c-12.2,0-24.1,0.4-36-0.1c-8.2-0.3-13.5-5.4-15.5-13.3
	c-2-7.6,0.8-14.1,7.1-18.2c3.4-2.2,8.1-3,12.2-3.2c10.6-0.4,21.1-0.1,33.1-0.1c0-6.4-0.1-12,0-17.5c0.6-20.2,14.1-34.8,34.3-35.4
	c23.9-0.7,47.9-0.7,71.8,0c20.3,0.6,33.8,15.1,34.4,35.4c0.2,5.3,0,10.6,0,17.5c10.8,0,20.9,0,31.1,0c13.8,0.1,22.1,6.7,22,17.5
	c0,10.8-8.3,17.4-22.1,17.6c-9.9,0.1-19.8,0-31.2,0c2.8,24-2.3,43.4-26.1,52.8C522.6,1024,493.3,1024,464,1024z"/>
<path class="st0" d="M-3.1,996.1c4.6,14,14,23.3,27.9,27.9c-9.3,0-18.6,0-27.9,0C-3.1,1014.7-3.1,1005.4-3.1,996.1z"/>
<path d="M683.6,742.2c-135-135-269.8-269.8-404.4-404.4c-0.1,1.1-0.5,3.9-0.5,6.7c0,30.6,0.1,61.2-0.1,91.8c0,5.9-0.5,12.1-2.4,17.6
	c-5.6,16.4-21.6,25.7-38.5,23.2c-16.3-2.4-29-16.8-29.2-34.2c-0.3-35.9-0.1-71.9-0.1-107.8c0-33.6-0.1-67.2,0-100.8
	c0-14.4,6.3-20.8,20.6-20.8c68.5-0.1,137.1-0.1,205.6,0c21.7,0,37.8,15.4,37.7,35.4c-0.1,20.1-15.3,34.6-37,34.7
	c-31.3,0.2-62.5,0.1-93.8,0.1c-3.3,0-6.5,0-8,0C467.9,418.1,602.8,553,737.2,687.4c0-1.2,0-4.3,0-7.5c0-31.6-0.1-63.2,0.1-94.8
	c0.1-21.5,14.8-36.7,35.1-36.6c19.1,0,34.9,15.8,35,36.1c0.3,69.5,0.2,139,0.1,208.6c0,12.5-6.7,19.2-19.2,19.3
	c-69.5,0.1-139,0.2-208.6,0c-20.2-0.1-36.1-15.8-36.1-35c-0.1-19.8,14.9-34.9,35.6-35.1c31.9-0.3,63.9-0.1,95.8-0.1
	C678.1,742.2,681.2,742.2,683.6,742.2z"/>
<path d="M877.9,54.8c0-6.3-0.1-11.2,0-16.1C878.6,16.3,893,2.1,915.2,2c22.3-0.1,44.6-0.2,66.9,0c22.1,0.2,36.7,14.9,36.8,37.1
	c0.2,21.6,0.1,43.2,0,64.9c-0.1,24.7-14.2,38.8-39.1,39c-4,0-7.9,0-13.8,0c0,8,0.1,15.5,0,22.9c-0.1,5,0.1,10-0.6,14.9
	c-1.4,9.5-9,15.3-18.2,14.7c-8.6-0.6-15.7-7.1-16.1-16.1c-0.5-11.6-0.1-23.2-0.1-36.4c-38.7,3.8-57.4-13.3-53-53.1
	c-11.8,0-22.4,0.1-32.9,0c-12.3-0.2-19.9-7-19.9-17.5c0-10.2,7.1-17.1,18.9-17.5C854.8,54.5,865.4,54.8,877.9,54.8z"/>
<path d="M437.7,52.8c0-4.9-0.2-10.5,0-16c0.7-20,15-34.4,35-34.7c22.9-0.3,45.9-0.2,68.8-0.1c21.8,0.2,36.2,14.4,36.7,36.1
	c0.1,4.9,0,9.9,0,16.7c11.6,0,22.4-0.1,33.1,0c8.7,0.1,15.6,3.1,18.7,12c4,11.2-3.6,22.3-16,23.1c-6,0.4-12,0.1-18,0.1
	c-5.6,0-11.1,0-17.9,0c0,6.6,0.1,12.1,0,17.7c-0.6,19.9-13.7,34.4-33.5,35.1c-24.6,0.9-49.2,0.9-73.8,0
	c-19.8-0.8-32.6-15.4-33.2-35.4c-0.1-5.3,0-10.5,0-17.3c-11.3,0-21.8,0.1-32.3,0c-12.8-0.1-21-7.1-20.8-17.7
	c0.1-10.2,7.9-17,20.3-17.4c10-0.3,19.9-0.3,29.9-0.5C435.3,54.3,435.9,53.7,437.7,52.8z"/>
<path d="M931,583.3c-6.5,0-11.8,0.1-17,0c-20.6-0.6-35.1-13.5-35.8-33.9c-0.9-24.2-0.9-48.5,0-72.8c0.7-20.4,15.2-33.3,35.7-34
	c5.3-0.2,10.5,0,17.1,0c0-11.5-0.1-22,0-32.5c0.1-12.3,6.7-20.2,16.9-20.6c10.5-0.4,17.8,7.7,18.1,20.5c0.2,8,0.4,16,0,23.9
	c-0.3,6.4,1.7,9.2,8.4,8.7c5.3-0.4,10.7-0.3,15.9,0.5c15.5,2.4,28.1,16.4,28.4,32.7c0.5,24.6,0.6,49.2,0,73.8
	c-0.4,19.1-15.4,32.7-35.2,33.5c-17.5,0.7-17.5,0.7-17.5,18.4c0,5.6,0.2,11.3-0.2,16.9c-0.8,10.7-8.3,18-17.8,17.7
	c-9.6-0.2-16.8-7.8-17-18.5C930.8,607,931,596,931,583.3z"/>
<path d="M84.9,734.1c0,11.9,0.2,23.9,0,35.8c-0.2,11.6-6.9,18.8-17.3,18.9c-10.3,0.1-17.5-6.8-17.6-18.6c-0.4-24.5-0.3-49.1,0-73.6
	c0.1-11.5,7.4-19,17.4-19.1c10.4-0.1,17.4,7.6,17.6,19.7C85,709.5,84.9,721.8,84.9,734.1z"/>
<path d="M287.4,89.9c-11.9,0-23.9,0.1-35.8,0c-11.9-0.2-19.1-6.4-19.4-16.7c-0.4-10.7,6.7-18.1,18.9-18.3c24.5-0.4,49.1-0.4,73.6,0
	c11.4,0.2,18.9,7.9,18.7,17.8c-0.2,10-7.7,17-19.2,17.2C312,90.1,299.7,89.9,287.4,89.9z"/>
<path d="M727.3,89.9c-11.9,0-23.9,0.2-35.8,0c-11.4-0.2-19-7.3-19.1-17.3c-0.1-9.6,7-17.4,17.8-17.6c25.2-0.5,50.4-0.5,75.6,0
	c11.6,0.2,18.3,7.9,17.8,18.3c-0.4,9.9-7.4,16.4-18.6,16.6C752.5,90.1,739.9,89.9,727.3,89.9z"/>
<path d="M84.9,293c0,12.3,0.2,24.5-0.1,36.8c-0.2,11-6.9,18.2-16.7,18.6c-9.9,0.5-18-6.9-18.2-18.1c-0.4-25.2-0.4-50.4,0-75.6
	c0.2-11,7.6-17.6,17.6-17.5c10,0.1,16.9,7.1,17.2,18C85.1,267.7,84.9,280.4,84.9,293z"/>
<path d="M931,292.1c0-11.9-0.1-23.9,0-35.8c0.2-11.7,6.7-18.9,17-19.1c10.4-0.2,17.7,6.6,17.9,18.3c0.4,24.9,0.4,49.7,0,74.6
	c-0.2,11.3-8.1,18.7-18,18.3c-10-0.4-16.7-7.9-16.9-19.5C930.8,316.7,931,304.4,931,292.1z"/>
<path d="M931,732.8c0-12.3-0.2-24.5,0.1-36.8c0.2-10.8,7.1-18.2,16.8-18.5c9.6-0.4,17.8,6.7,18,17.3c0.5,25.5,0.5,51.1,0,76.6
	c-0.2,10.9-7.8,17.5-17.8,17.3c-9.9-0.2-16.8-7.2-17-18.1C930.8,758,931,745.4,931,732.8z"/>
<path d="M287.9,936c12.3,0,24.5-0.2,36.8,0.1c10.9,0.2,18.2,7,18.6,16.7c0.4,9.6-6.5,17.8-17.2,18.1c-25.5,0.5-51.1,0.5-76.6,0.1
	c-11-0.2-17.6-7.7-17.5-17.7c0.1-10.3,7.3-17,19-17.1C263.4,935.9,275.7,936,287.9,936z"/>
<path d="M728.9,936c11.9,0,23.9-0.1,35.8,0c11.7,0.2,18.9,6.8,19,17.1c0.2,10.4-6.7,17.6-18.4,17.8c-24.9,0.4-49.7,0.4-74.6,0
	c-11.3-0.2-18.6-8.2-18.2-18.2c0.4-10,7.9-16.6,19.6-16.8C704.3,935.9,716.6,936,728.9,936z"/>
</svg>
