<?xml version="1.0" encoding="utf-8"?>
<!-- Generator: Adobe Illustrator 24.1.3, SVG Export Plug-In . SVG Version: 6.00 Build 0)  -->
<svg version="1.1" id="图层_1" xmlns="http://www.w3.org/2000/svg" xmlns:xlink="http://www.w3.org/1999/xlink" x="0px" y="0px"
	 viewBox="0 0 1024 1024" style="enable-background:new 0 0 1024 1024;" xml:space="preserve">
<g>
	<path d="M915,97.6c-268.8,0.2-537.6,0.2-806.4,0c-8.5,0-10.9,1.6-10.9,10.6C98,242.8,97.9,377.4,97.9,512
		c0,134.6,0.1,269.2-0.2,403.7c0,9.1,2.4,10.6,10.9,10.6c268.8-0.2,537.6-0.2,806.4,0c8.8,0,11.4-1.8,11.4-11.1
		c-0.3-268.8-0.3-537.7,0-806.5C926.4,99.4,923.8,97.6,915,97.6z"/>
	<path d="M1024,8.6c0-7.5-1.9-8.6-8.8-8.6C679.8,0.2,344.3,0.2,8.9,0C2.1,0,0,0.9,0,8.5c0.3,335.8,0.3,671.6,0,1007.4
		c0,7,1.7,8.1,8.3,8.1c167.9-0.2,335.8-0.2,503.7-0.2c167.6,0,335.1-0.1,502.7,0.2c7.2,0,9.4-1.2,9.4-9
		C1023.8,679.5,1023.8,344,1024,8.6z M975.4,964.1c0,9.5-2.7,11.3-11.6,11.3c-301.2-0.2-602.4-0.2-903.6,0
		c-8.8,0-11.6-1.8-11.6-11.3c0.3-301.5,0.3-603.1,0-904.6c0-9.2,2.6-10.8,11.1-10.8c150.9,0.3,301.9,0.2,452.8,0.2
		c150.6,0,301.2,0.1,451.8-0.2c8.5,0,11.1,1.6,11.1,10.8C975.1,361,975.1,662.5,975.4,964.1z"/>
</g>
</svg>
