<svg id="图层_1" data-name="图层 1" xmlns="http://www.w3.org/2000/svg" viewBox="0 0 2097.638 1176.378"><defs><style>.cls-1{fill:#231815;}</style></defs><path class="cls-1" d="M1048.819,426.614a161.575,161.575,0,1,0,161.575,161.575A161.576,161.576,0,0,0,1048.819,426.614Zm0,289.134a127.559,127.559,0,1,1,127.559-127.559A127.559,127.559,0,0,1,1048.819,715.748Z"/><path class="cls-1" d="M2083.465,0H14.173A14.174,14.174,0,0,0,0,14.173V1162.205a14.174,14.174,0,0,0,14.173,14.173H2083.465a14.174,14.174,0,0,0,14.173-14.173V14.173A14.174,14.174,0,0,0,2083.465,0ZM104.665,991.911A49.607,49.607,0,1,1,154.271,942.3,49.606,49.606,0,0,1,104.665,991.911Zm0-708.231a49.607,49.607,0,1,1,49.606-49.606A49.606,49.606,0,0,1,104.665,283.68Zm1780.374,793.485a28.346,28.346,0,0,1-28.346,28.347H240.945a28.347,28.347,0,0,1-28.347-28.347V99.213a28.347,28.347,0,0,1,28.347-28.347H1856.693a28.346,28.346,0,0,1,28.346,28.347Zm105.472-106.514a28.347,28.347,0,1,1,28.347-28.347A28.346,28.346,0,0,1,1990.511,970.651Zm0-686.971a49.607,49.607,0,1,1,49.606-49.606A49.606,49.606,0,0,1,1990.511,283.68Z"/></svg>