<?xml version="1.0" encoding="utf-8"?>
<!-- Generator: $$$/GeneralStr/196=Adobe Illustrator 27.6.0, SVG Export Plug-In . SVG Version: 6.00 Build 0)  -->
<svg version="1.1" id="图层_1" xmlns="http://www.w3.org/2000/svg" xmlns:xlink="http://www.w3.org/1999/xlink" x="0px" y="0px"
	 viewBox="0 0 1024 211.41" style="enable-background:new 0 0 1024 211.41;" xml:space="preserve">
<style type="text/css">
	.st0{fill-rule:evenodd;clip-rule:evenodd;}
</style>
<path class="st0" d="M826.5,181.24c-1.32-4.33-5.17-7.03-8.37-7.03h-66.14c-3.61,0-6.54-2.93-6.54-6.54V3.31h-51.36v190.68
	c0,7.8,6.32,14.12,14.13,14.12h89.6h36.87C834.68,208.11,827.48,184.45,826.5,181.24L826.5,181.24z M468.13,95.17h-96.05
	c0,0,7.2,23.65,8.18,26.87c1.32,4.33,5.18,7.03,8.38,7.03h28.15v3.17c0,34.96-4.62,45.18-36.32,45.26
	c-31.7-0.08-36.32-10.3-36.32-45.26V79.18c0-34.96,4.62-45.19,36.32-45.27c29.62,0.08,35.6,9.01,36.26,38.72h51.32
	C466.21,11.22,437.88,0.05,380.47,0c-59.39,0.05-87.67,12-87.67,79.18v53.06c0,67.18,28.28,79.12,87.67,79.18
	c59.39-0.05,87.67-12,87.67-79.18L468.13,95.17L468.13,95.17L468.13,95.17z M972.65,128.93L972.65,128.93
	c0,34.97-4.62,45.18-36.32,45.26v0.01h-36.11V37.22h36.11c31.7,0.09,36.32,10.3,36.32,45.27V128.93L972.65,128.93z M936.33,3.31
	L936.33,3.31l-87.45,0v204.8h87.45c59.39-0.05,87.67-12,87.67-79.18V82.49C1024,15.3,995.73,3.36,936.33,3.31L936.33,3.31z
	 M133.47,3.31c-5.19,0-9.4,4.21-9.4,9.4c0,0,0,62.62,0,65.87c0,5.19-4.21,9.4-9.4,9.4H70.31c-3.22,0-8.5-2.16-10.78-9.63
	c0,0-20.66-67.82-20.72-68.02C37.5,6,33.64,3.31,30.44,3.31H0v204.8h41.95c5.19,0,9.4-4.21,9.4-9.4c0,0,0-62.62,0-65.87
	c0-5.2,4.21-9.41,9.4-9.41h44.36c3.22,0,8.5,2.16,10.77,9.63c0,0,20.66,67.83,20.72,68.02c1.32,4.33,5.17,7.03,8.37,7.03h30.45V3.31
	H133.47L133.47,3.31z M616.33,132.23L616.33,132.23c0,34.96-4.62,45.18-36.32,45.26c-31.7-0.08-36.32-10.3-36.32-45.26V79.18
	c0-34.96,4.62-45.19,36.32-45.27c31.7,0.08,36.32,10.3,36.32,45.27V132.23L616.33,132.23z M580.01,0
	c-59.39,0.05-87.67,12-87.67,79.18v53.06c0,67.18,28.28,79.12,87.67,79.18c59.39-0.05,87.67-12,87.67-79.18V79.18
	C667.68,12,639.4,0.05,580.01,0L580.01,0z M210.75,208.11h53.38V3.31h-53.38V208.11z"/>
</svg>
