<?xml version="1.0" encoding="UTF-8"?>
<svg id="_图层_2" data-name="图层 2" xmlns="http://www.w3.org/2000/svg" xmlns:xlink="http://www.w3.org/1999/xlink" viewBox="0 0 384 384">
  <g id="_图层_1-2" data-name="图层 1">
    <image width="512" height="512" transform="scale(.75)" xlink:href="../../../../../../../../Downloads/From_四窗口_ioc.png"/>
    <g>
      <path d="m0,89.13c0-3.49.01-6.16,0-8.84-.02-2.52.18-5.03.23-7.55.05-2.38.21-4.77.37-7.16.11-1.79.33-3.58.48-5.37.22-2.54.5-5.07.84-7.58.39-2.92.89-5.83,1.54-8.72,1.26-5.63,2.95-11.12,5.57-16.28,1.62-3.2,3.63-6.15,5.95-8.89,2.72-3.21,5.99-5.76,9.56-7.94,3.9-2.38,8.07-4.12,12.43-5.47,3.9-1.21,7.87-2.09,11.88-2.8,3.03-.53,6.07-.93,9.13-1.22,2.9-.28,5.81-.53,8.71-.77,1.52-.13,3.05-.04,4.56-.16,3.2-.24,6.41-.02,9.6-.21,3.92-.24,7.84-.2,11.75-.1,3.17.08,6.34.01,9.51.18,1.86.1,3.73.05,5.59.16,1.7.1,3.39.35,5.09.48,1.49.11,2.97.28,4.45.41,2.63.23,5.24.63,7.85,1,2.37.33,4.71.83,7.05,1.35,4.17.92,8.24,2.17,12.18,3.82,4.3,1.8,8.35,4.08,11.86,7.14,3.28,2.87,6.16,6.13,8.39,9.93,3.43,5.83,5.6,12.11,7.08,18.67.84,3.7,1.5,7.43,1.96,11.19.3,2.46.64,4.92.84,7.4.17,2.17.2,4.34.37,6.5.21,2.6.25,5.21.38,7.81.31,6.31.05,12.62.16,18.94.04,2.52-.15,5.03-.24,7.54-.08,2.29-.21,4.58-.47,6.87-.15,1.29-.09,2.6-.18,3.91-.13,2.05-.44,4.07-.64,6.11-.23,2.28-.53,4.56-.9,6.83-.46,2.79-1.03,5.56-1.73,8.3-.86,3.38-1.94,6.69-3.28,9.91-.91,2.18-1.99,4.29-3.2,6.32-1.68,2.81-3.61,5.45-5.95,7.74-2.79,2.71-5.87,5.06-9.3,6.96-4.5,2.49-9.29,4.15-14.22,5.52-4.35,1.21-8.8,1.94-13.26,2.55-2.61.36-5.23.64-7.87.83-2.14.16-4.28.2-6.41.4-2.48.24-4.96.25-7.43.42-2.42.17-4.86-.04-7.28.1-2.55.14-5.1.28-7.64.13-3.23-.2-6.47.03-9.69-.19-2.44-.17-4.9-.07-7.34-.46-1.27-.2-2.59-.25-3.9-.27-1.58-.03-3.16-.18-4.73-.37-1.94-.23-3.88-.46-5.82-.67-3.84-.41-7.61-1.17-11.37-1.99-4.42-.97-8.66-2.45-12.79-4.29-3.32-1.48-6.38-3.35-9.26-5.53-2.71-2.06-5.05-4.49-7.12-7.19-1.79-2.33-3.2-4.87-4.6-7.44-1.57-2.86-2.53-5.94-3.52-9.01-1.22-3.8-2.03-7.69-2.69-11.62-.52-3.06-.96-6.13-1.21-9.23-.07-.83-.2-1.66-.33-2.49-.14-.92-.18-1.85-.24-2.78-.11-1.7-.07-3.41-.32-5.11-.02-.12-.03-.25-.02-.37.11-2.12-.09-4.23-.24-6.33-.27-3.95,0-7.9-.14-11.03Z"/>
      <path d="m207,89.13c0-3.49.01-6.16,0-8.84-.02-2.52.18-5.03.23-7.55.05-2.38.21-4.77.37-7.16.11-1.79.33-3.58.48-5.37.22-2.54.5-5.07.84-7.58.39-2.92.89-5.83,1.54-8.72,1.26-5.63,2.95-11.12,5.57-16.28,1.62-3.2,3.63-6.15,5.95-8.89,2.72-3.21,5.99-5.76,9.56-7.94,3.9-2.38,8.07-4.12,12.43-5.47,3.9-1.21,7.87-2.09,11.88-2.8,3.03-.53,6.07-.93,9.13-1.22,2.9-.28,5.81-.53,8.71-.77,1.52-.13,3.05-.04,4.56-.16,3.2-.24,6.41-.02,9.6-.21,3.92-.24,7.84-.2,11.75-.1,3.17.08,6.34.01,9.51.18,1.86.1,3.73.05,5.59.16,1.7.1,3.39.35,5.09.48,1.49.11,2.97.28,4.45.41,2.63.23,5.24.63,7.85,1,2.37.33,4.71.83,7.05,1.35,4.17.92,8.24,2.17,12.18,3.82,4.3,1.8,8.35,4.08,11.86,7.14,3.28,2.87,6.16,6.13,8.39,9.93,3.43,5.83,5.6,12.11,7.08,18.67.84,3.7,1.5,7.43,1.96,11.19.3,2.46.64,4.92.84,7.4.17,2.17.2,4.34.37,6.5.21,2.6.25,5.21.38,7.81.31,6.31.05,12.62.16,18.94.04,2.52-.15,5.03-.24,7.54-.08,2.29-.21,4.58-.47,6.87-.15,1.29-.09,2.6-.18,3.91-.13,2.05-.44,4.07-.64,6.11-.23,2.28-.53,4.56-.9,6.83-.46,2.79-1.03,5.56-1.73,8.3-.86,3.38-1.94,6.69-3.28,9.91-.91,2.18-1.99,4.29-3.2,6.32-1.68,2.81-3.61,5.45-5.95,7.74-2.79,2.71-5.87,5.06-9.3,6.96-4.5,2.49-9.29,4.15-14.22,5.52-4.35,1.21-8.8,1.94-13.26,2.55-2.61.36-5.23.64-7.87.83-2.14.16-4.28.2-6.41.4-2.48.24-4.96.25-7.43.42-2.42.17-4.86-.04-7.28.1-2.55.14-5.1.28-7.64.13-3.23-.2-6.47.03-9.69-.19-2.44-.17-4.9-.07-7.34-.46-1.27-.2-2.59-.25-3.9-.27-1.58-.03-3.16-.18-4.73-.37-1.94-.23-3.88-.46-5.82-.67-3.84-.41-7.61-1.17-11.37-1.99-4.42-.97-8.66-2.45-12.79-4.29-3.32-1.48-6.38-3.35-9.26-5.53-2.71-2.06-5.05-4.49-7.12-7.19-1.79-2.33-3.2-4.87-4.6-7.44-1.57-2.86-2.53-5.94-3.52-9.01-1.22-3.8-2.03-7.69-2.69-11.62-.52-3.06-.96-6.13-1.21-9.23-.07-.83-.2-1.66-.33-2.49-.14-.92-.18-1.85-.24-2.78-.11-1.7-.07-3.41-.32-5.11-.02-.12-.03-.25-.02-.37.11-2.12-.09-4.23-.24-6.33-.27-3.95,0-7.9-.14-11.03Z"/>
    </g>
    <g>
      <path d="m0,296.13c0-3.49.01-6.16,0-8.84-.02-2.52.18-5.03.23-7.55.05-2.38.21-4.77.37-7.16.11-1.79.33-3.58.48-5.37.22-2.54.5-5.07.84-7.58.39-2.92.89-5.83,1.54-8.72,1.26-5.63,2.95-11.12,5.57-16.28,1.62-3.2,3.63-6.15,5.95-8.89,2.72-3.21,5.99-5.76,9.56-7.94,3.9-2.38,8.07-4.12,12.43-5.47,3.9-1.21,7.87-2.09,11.88-2.8,3.03-.53,6.07-.93,9.13-1.22,2.9-.28,5.81-.53,8.71-.77,1.52-.13,3.05-.04,4.56-.16,3.2-.24,6.41-.02,9.6-.21,3.92-.24,7.84-.2,11.75-.1,3.17.08,6.34.01,9.51.18,1.86.1,3.73.05,5.59.16,1.7.1,3.39.35,5.09.48,1.49.11,2.97.28,4.45.41,2.63.23,5.24.63,7.85,1,2.37.33,4.71.83,7.05,1.35,4.17.92,8.24,2.17,12.18,3.82,4.3,1.8,8.35,4.08,11.86,7.14,3.28,2.87,6.16,6.13,8.39,9.93,3.43,5.83,5.6,12.11,7.08,18.67.84,3.7,1.5,7.43,1.96,11.19.3,2.46.64,4.92.84,7.4.17,2.17.2,4.34.37,6.5.21,2.6.25,5.21.38,7.81.31,6.31.05,12.62.16,18.94.04,2.52-.15,5.03-.24,7.54-.08,2.29-.21,4.58-.47,6.87-.15,1.29-.09,2.6-.18,3.91-.13,2.05-.44,4.07-.64,6.11-.23,2.28-.53,4.56-.9,6.83-.46,2.79-1.03,5.56-1.73,8.3-.86,3.38-1.94,6.69-3.28,9.91-.91,2.18-1.99,4.29-3.2,6.32-1.68,2.81-3.61,5.45-5.95,7.74-2.79,2.71-5.87,5.06-9.3,6.96-4.5,2.49-9.29,4.15-14.22,5.52-4.35,1.21-8.8,1.94-13.26,2.55-2.61.36-5.23.64-7.87.83-2.14.16-4.28.2-6.41.4-2.48.24-4.96.25-7.43.42-2.42.17-4.86-.04-7.28.1-2.55.14-5.1.28-7.64.13-3.23-.2-6.47.03-9.69-.19-2.44-.17-4.9-.07-7.34-.46-1.27-.2-2.59-.25-3.9-.27-1.58-.03-3.16-.18-4.73-.37-1.94-.23-3.88-.46-5.82-.67-3.84-.41-7.61-1.17-11.37-1.99-4.42-.97-8.66-2.45-12.79-4.29-3.32-1.48-6.38-3.35-9.26-5.53-2.71-2.06-5.05-4.49-7.12-7.19-1.79-2.33-3.2-4.87-4.6-7.44-1.57-2.86-2.53-5.94-3.52-9.01-1.22-3.8-2.03-7.69-2.69-11.62-.52-3.06-.96-6.13-1.21-9.23-.07-.83-.2-1.66-.33-2.49-.14-.92-.18-1.85-.24-2.78-.11-1.7-.07-3.41-.32-5.11-.02-.12-.03-.25-.02-.37.11-2.12-.09-4.23-.24-6.33-.27-3.95,0-7.9-.14-11.03Z"/>
      <path d="m207,296.13c0-3.49.01-6.16,0-8.84-.02-2.52.18-5.03.23-7.55.05-2.38.21-4.77.37-7.16.11-1.79.33-3.58.48-5.37.22-2.54.5-5.07.84-7.58.39-2.92.89-5.83,1.54-8.72,1.26-5.63,2.95-11.12,5.57-16.28,1.62-3.2,3.63-6.15,5.95-8.89,2.72-3.21,5.99-5.76,9.56-7.94,3.9-2.38,8.07-4.12,12.43-5.47,3.9-1.21,7.87-2.09,11.88-2.8,3.03-.53,6.07-.93,9.13-1.22,2.9-.28,5.81-.53,8.71-.77,1.52-.13,3.05-.04,4.56-.16,3.2-.24,6.41-.02,9.6-.21,3.92-.24,7.84-.2,11.75-.1,3.17.08,6.34.01,9.51.18,1.86.1,3.73.05,5.59.16,1.7.1,3.39.35,5.09.48,1.49.11,2.97.28,4.45.41,2.63.23,5.24.63,7.85,1,2.37.33,4.71.83,7.05,1.35,4.17.92,8.24,2.17,12.18,3.82,4.3,1.8,8.35,4.08,11.86,7.14,3.28,2.87,6.16,6.13,8.39,9.93,3.43,5.83,5.6,12.11,7.08,18.67.84,3.7,1.5,7.43,1.96,11.19.3,2.46.64,4.92.84,7.4.17,2.17.2,4.34.37,6.5.21,2.6.25,5.21.38,7.81.31,6.31.05,12.62.16,18.94.04,2.52-.15,5.03-.24,7.54-.08,2.29-.21,4.58-.47,6.87-.15,1.29-.09,2.6-.18,3.91-.13,2.05-.44,4.07-.64,6.11-.23,2.28-.53,4.56-.9,6.83-.46,2.79-1.03,5.56-1.73,8.3-.86,3.38-1.94,6.69-3.28,9.91-.91,2.18-1.99,4.29-3.2,6.32-1.68,2.81-3.61,5.45-5.95,7.74-2.79,2.71-5.87,5.06-9.3,6.96-4.5,2.49-9.29,4.15-14.22,5.52-4.35,1.21-8.8,1.94-13.26,2.55-2.61.36-5.23.64-7.87.83-2.14.16-4.28.2-6.41.4-2.48.24-4.96.25-7.43.42-2.42.17-4.86-.04-7.28.1-2.55.14-5.1.28-7.64.13-3.23-.2-6.47.03-9.69-.19-2.44-.17-4.9-.07-7.34-.46-1.27-.2-2.59-.25-3.9-.27-1.58-.03-3.16-.18-4.73-.37-1.94-.23-3.88-.46-5.82-.67-3.84-.41-7.61-1.17-11.37-1.99-4.42-.97-8.66-2.45-12.79-4.29-3.32-1.48-6.38-3.35-9.26-5.53-2.71-2.06-5.05-4.49-7.12-7.19-1.79-2.33-3.2-4.87-4.6-7.44-1.57-2.86-2.53-5.94-3.52-9.01-1.22-3.8-2.03-7.69-2.69-11.62-.52-3.06-.96-6.13-1.21-9.23-.07-.83-.2-1.66-.33-2.49-.14-.92-.18-1.85-.24-2.78-.11-1.7-.07-3.41-.32-5.11-.02-.12-.03-.25-.02-.37.11-2.12-.09-4.23-.24-6.33-.27-3.95,0-7.9-.14-11.03Z"/>
    </g>
  </g>
</svg>