<svg id="图层_1" data-name="图层 1" xmlns="http://www.w3.org/2000/svg" viewBox="0 0 2267.717 1275.591"><defs><style>.cls-1{fill:#231815;}</style></defs><path class="cls-1" d="M1741.89,523.106a161.575,161.575,0,1,0,161.575,161.575A161.575,161.575,0,0,0,1741.89,523.106Zm0,289.134a127.559,127.559,0,1,1,127.559-127.559A127.559,127.559,0,0,1,1741.89,812.24Z"/><path class="cls-1" d="M635.735,474.822A161.575,161.575,0,1,0,797.309,636.4,161.574,161.574,0,0,0,635.735,474.822Zm0,289.133A127.559,127.559,0,1,1,763.294,636.4,127.559,127.559,0,0,1,635.735,763.955Z"/><path class="cls-1" d="M2253.543,0H14.173A14.174,14.174,0,0,0,0,14.173V1261.417a14.174,14.174,0,0,0,14.173,14.174h2239.37a14.174,14.174,0,0,0,14.174-14.174V14.173A14.174,14.174,0,0,0,2253.543,0ZM2084.529,79.389a39.685,39.685,0,1,1-39.685,39.685A39.685,39.685,0,0,1,2084.529,79.389Zm-702.612-9.922a49.607,49.607,0,1,1-49.606,49.607A49.606,49.606,0,0,1,1381.917,69.467Zm-144.594,1101.26a32.6,32.6,0,0,1-32.6,32.6H107.716a32.6,32.6,0,0,1-32.6-32.6V102.066a32.6,32.6,0,0,1,32.6-32.6H1204.724a32.6,32.6,0,0,1,32.6,32.6Zm955.275,8.541a26.854,26.854,0,0,1-26.854,26.855H1318.036a26.854,26.854,0,0,1-26.855-26.855V240.852A26.855,26.855,0,0,1,1318.036,214h847.708a26.855,26.855,0,0,1,26.854,26.855Z"/></svg>